<?xml version="1.0" encoding="UTF-8"?>
<svg width="36px" height="36px" viewBox="0 0 36 36" version="1.1" xmlns="http://www.w3.org/2000/svg" xmlns:xlink="http://www.w3.org/1999/xlink">
    <!-- Generator: Sketch 59.1 (86144) - https://sketch.com -->
    <title>Icon / Menu / Home / Mugs</title>
    <desc>Created with Sketch.</desc>
    <g id="Icon-/-Menu-/-Home-/-Mugs" stroke="none" stroke-width="1" fill="none" fill-rule="evenodd">
        <rect id="Rectangle" fill="#FFFFFF" x="0" y="0" width="36" height="36" rx="4"></rect>
        <path d="M11.1563294,8.039675 C10.4746496,7.36066236 10.4746496,6.23896936 11.1563294,5.53115298 L11.5116277,5.17724479 C11.7488824,4.9409184 12.1041867,4.9409184 12.3414473,5.17724479 C12.578702,5.41357117 12.578702,5.76748526 12.3414473,6.00381755 L11.9861489,6.35772574 C11.8680993,6.47531345 11.8079191,6.62287357 11.8079191,6.77042188 C11.8079191,6.91797019 11.8669439,7.06554212 11.9861489,7.18311802 L13.2603877,8.45237114 C13.9420675,9.13138378 13.9420675,10.2530768 13.2603877,10.9608932 L12.9050893,11.3148014 C12.8159744,11.4635154 12.6678347,11.5223063 12.519689,11.5223063 C12.3715433,11.5223063 12.2234095,11.4635124 12.1053718,11.3447738 C11.8681171,11.1084474 11.8681171,10.7545333 12.1053718,10.518201 L12.4606701,10.1642928 C12.5787197,10.0467051 12.6389,9.89914499 12.6389,9.75159667 C12.6389,9.60404836 12.5798752,9.45647643 12.4606701,9.33890053 L11.1563294,8.039675 Z M16.6084642,9.33888282 C16.7265138,9.45647053 16.7866941,9.60403065 16.7866941,9.75157896 C16.7866941,9.89912728 16.7276693,10.0466992 16.6084642,10.1642751 L16.2531659,10.5181833 C16.0159112,10.7545097 16.0159112,11.1084238 16.2531659,11.3447561 C16.3712155,11.4623438 16.5193552,11.5222886 16.6674831,11.5222886 C16.815611,11.5222886 16.9637626,11.4634947 17.0818003,11.3447561 L17.4370986,10.9908479 C18.1187784,10.3118352 18.1187784,9.19014222 17.4370986,8.48232584 L16.1628599,7.21307273 C16.0448103,7.09548502 15.98463,6.9479249 15.98463,6.80037658 C15.98463,6.65282827 16.0436548,6.50525635 16.1628599,6.38768044 L16.5181582,6.03377225 C16.7554129,5.79744587 16.7554129,5.44353178 16.5181582,5.20719949 C16.2809036,4.97087311 15.9255993,4.97087311 15.6883387,5.20719949 L15.3330403,5.56110768 C14.6513605,6.24012033 14.6513605,7.36181333 15.3330403,8.0696297 L16.6084642,9.33888282 Z M20.7563768,9.33888282 C20.9936315,9.57520921 20.9936315,9.9291233 20.7563768,10.1654556 L20.4010785,10.5193638 C20.1638238,10.7556902 20.1638238,11.1096043 20.4010785,11.3459365 C20.519128,11.4635242 20.6672678,11.5234691 20.8153957,11.5234691 C20.9635236,11.5234691 21.1116751,11.4646752 21.2297129,11.3459365 L21.5850112,10.9920283 C22.266691,10.3130157 22.266691,9.1913227 21.5850112,8.48350633 L20.3107725,7.21425321 C20.0735178,6.97792682 20.0735178,6.62401273 20.3107725,6.38768044 L20.6660708,6.03377225 C20.9033255,5.79744587 20.9033255,5.44353178 20.6660708,5.20719949 C20.4288161,4.97087311 20.0735119,4.97087311 19.8362513,5.20719949 L19.4809529,5.56110768 C18.7992731,6.24012033 18.7992731,7.36181333 19.4809529,8.0696297 L20.7563768,9.33888282 Z M30,17.4245871 L30,18.0148276 C30,21.6451016 27.3925036,24.8025931 23.8370907,25.5102914 C23.5998361,26.2780762 23.1855129,26.9271046 22.6218709,27.4585571 L26.147004,27.4585571 C26.4733855,27.4585571 26.7395629,27.723705 26.7395629,28.0487976 C26.7395629,29.6719589 25.4063053,31 23.7767682,31 L8.96279471,31 C7.33325762,31 6,29.6719589 6,28.0487976 C6,27.7236932 6.26618933,27.4585571 6.59255894,27.4585571 L10.1176921,27.4585571 C9.4070954,26.8095287 8.90247221,25.924168 8.75433247,24.9200509 L6.91763678,13.3802594 C6.88754663,13.2027268 6.94772692,13.0263512 7.06577651,12.9075948 C7.1838261,12.7900071 7.33196584,12.7012408 7.51019572,12.7012408 L25.286964,12.7012408 C25.4651938,12.7012408 25.6133454,12.7900071 25.7313832,12.9075948 C25.8494327,13.0251825 25.8795229,13.202715 25.8795229,13.3802594 L25.6735168,14.4731191 L27.0368764,14.4731191 C28.6664135,14.4731191 29.9996711,15.8011602 29.9996711,17.4243215 L30,17.4245871 Z M11.9269523,17.4245871 L11.9269523,21.2611502 L13.7046291,21.2611502 L13.7046291,17.4245871 L12.8157907,16.7167707 L11.9269523,17.4245871 Z M19.599998,28.6391561 L7.27536461,28.6391561 C7.51261928,29.3181688 8.16420302,29.8196371 8.96392057,29.8196371 L23.7778941,29.8196371 C24.5486948,29.8196371 25.2002726,29.3181688 25.4664501,28.6391561 L19.599998,28.6391561 Z M22.8300368,24.7137619 L24.5776116,13.8831442 L13.4081719,13.8831442 L13.4081719,15.6538657 L14.6523086,16.6568023 C14.8004484,16.77439 14.8895633,16.9519225 14.8895633,17.1294669 L14.8895633,21.8513907 C14.8895633,22.1764951 14.623374,22.4416311 14.2970044,22.4416311 L11.3342097,22.4416311 C11.0078282,22.4416311 10.7416507,22.1764833 10.7416507,21.8513907 L10.7416507,17.1294669 C10.7416507,16.9519343 10.8307657,16.7755587 10.9789054,16.6568023 L12.2230421,15.6538657 L12.2230421,13.8831442 L8.16430968,13.8831442 L9.91188451,24.7137619 C10.1780738,26.306939 11.5113196,27.4586162 13.1407382,27.4586162 L19.5999269,27.4586162 C21.2005175,27.4586162 22.5627216,26.3081194 22.8299657,24.7137619 L22.8300368,24.7137619 Z M28.8145858,17.4245871 C28.8145858,16.4504542 28.0148683,15.6538657 27.036909,15.6538657 L25.4663908,15.6538657 L24.0741143,24.2424548 C26.7996484,23.4458663 28.7843653,20.907301 28.7843653,18.0148276 L28.7843653,17.4245871 L28.8145858,17.4245871 Z" id="Shape" fill="#A7A7A7"></path>
    </g>
</svg>