<?xml version="1.0" encoding="UTF-8"?>
<svg width="36px" height="36px" viewBox="0 0 36 36" version="1.1" xmlns="http://www.w3.org/2000/svg" xmlns:xlink="http://www.w3.org/1999/xlink">
    <!-- Generator: Sketch 59.1 (86144) - https://sketch.com -->
    <title>Icon / Menu / Print / Books</title>
    <desc>Created with Sketch.</desc>
    <g id="Icon-/-Menu-/-Print-/-Books" stroke="none" stroke-width="1" fill="none" fill-rule="evenodd">
        <rect id="Rectangle-Copy-5" fill="#FFFFFF" x="0" y="0" width="36" height="36" rx="4"></rect>
        <path d="M30.9402604,24.0376388 C30.8815705,23.9405422 30.787665,23.8701214 30.6777513,23.8423803 C30.5678403,23.8146391 30.4515259,23.8317102 30.3544161,23.8893293 L30.1175176,24.0301709 C29.3598816,22.0999833 30.0855037,19.59995 30.2818514,18.999293 L30.5891783,18.8157689 L30.5902453,18.8157689 C30.7716529,18.6770606 30.8164707,18.4209852 30.6916195,18.2289333 C30.5678364,18.0368761 30.3159977,17.9728552 30.1143093,18.0816891 L29.8752773,18.2235987 C29.116576,16.3232937 29.8550025,14.1017642 30.0396112,13.6057237 L30.3351913,13.4435409 L30.3362584,13.4435409 C30.4835185,13.3635161 30.5699552,13.2045346 30.5571486,13.0370116 C30.5443419,12.8694887 30.4344309,12.7254567 30.2775767,12.667822 L14.74268,7.02563423 C14.6220959,6.98188652 14.4887078,6.99469179 14.3788049,7.05977799 L5.67967803,12.234606 C5.54522183,12.3156988 5.46732471,12.4629431 5.4737253,12.6187096 C4.35860672,16.2335776 5.55482682,18.0871739 5.6081815,18.1669337 C5.65726912,18.2394879 5.72769752,18.2949728 5.80879904,18.3269833 C4.82171967,21.7670352 5.7746516,23.832596 5.8173359,23.9202772 C5.86535538,24.0184419 5.94859043,24.0952626 6.05103273,24.1336757 L21.4823944,29.9722583 C21.4877302,29.9722583 21.4930656,29.9722583 21.4984011,29.9754594 C21.5421535,29.9903971 21.5869713,29.9989331 21.6328573,30 C21.6840784,29.9978662 21.7352996,29.9871964 21.7833191,29.9679895 C21.7950573,29.9637216 21.8057283,29.9594536 21.8174665,29.9530518 C21.8292048,29.9477166 21.8398757,29.9455828 21.8505458,29.9391807 L30.7917097,24.6223146 C30.8888168,24.5646964 30.9592452,24.470801 30.9869893,24.3609018 C31.0147335,24.2510026 30.9976606,24.1347008 30.9400353,24.0376014 L30.9402604,24.0376388 Z M29.3801734,24.468697 L21.8324843,28.9565525 C21.6990962,28.615115 21.5977193,28.2629972 21.529419,27.9034225 L27.0623959,24.7152149 L27.0623959,24.714148 C27.1616365,24.6586657 27.2331331,24.5647677 27.2630107,24.4548685 C27.2928911,24.3460346 27.2779503,24.2286674 27.2213945,24.1305028 C27.1637701,24.0312728 27.0709327,23.959784 26.9610217,23.9309748 C26.8511107,23.9021657 26.7337282,23.9181712 26.6355557,23.9757878 L21.419467,26.9826238 C21.3757146,25.9839325 21.5101708,24.9852139 21.8164241,24.0345151 L29.2190412,19.6310629 C28.9362458,20.8239639 28.6694861,22.802062 29.3801734,24.4688237 L29.3801734,24.468697 Z M20.6406023,23.023979 L18.8051641,22.3293583 C18.3505661,20.7790132 18.360182,19.1294053 18.8350444,17.5844685 L20.6800712,18.2310694 L20.6790042,18.2310694 C20.2062671,19.7920674 20.1924169,21.4556059 20.6405897,23.0240336 L20.6406023,23.023979 Z M8.84170795,24.2766178 C8.05631699,21.7563714 8.55252017,20.1047969 8.82890266,19.4686304 L18.307957,23.053725 L18.3090243,23.053725 C17.8736308,24.5891288 17.8010744,26.2056036 18.0956028,27.7751239 L8.84170795,24.2766178 Z M6.26038054,17.5833486 C6.06510093,17.1874996 5.49206329,15.7097031 6.2038242,13.1607759 L7.58892604,13.6462455 L7.58999335,13.6462455 C7.15033832,15.0930941 7.15033832,16.6380582 7.58999335,18.0849341 L6.26038054,17.5833486 Z M8.61655343,18.4742822 C8.04137407,17.025303 7.964556,15.4270201 8.39779678,13.928792 L18.027373,17.3005564 C17.5461127,18.8103387 17.4831448,20.421569 17.8438291,21.9643206 L8.61655343,18.4742822 Z M28.7657245,15.1964814 L25.0095068,17.3614142 L25.0095068,17.3624814 C24.9102662,17.4179636 24.8387697,17.511859 24.808892,17.6217609 C24.7790117,17.7305948 24.7939524,17.8479619 24.8505082,17.9461266 C24.9081327,18.0453566 25.00097,18.1168454 25.110881,18.1456545 C25.220792,18.1744637 25.3381745,18.1584584 25.436347,18.1008415 L28.6888217,16.227196 C28.6653455,17.0615875 28.8190081,17.8917178 29.1391308,18.6631483 L21.592548,23.1520964 C20.7633937,21.0223727 21.3791266,18.8243068 21.5733402,18.2386731 L28.9653034,14.1946863 C28.8799348,14.5254437 28.8127081,14.8594243 28.7646859,15.1976661 L28.7657245,15.1964814 Z M14.6415266,7.8970922 L29.0965448,13.1478559 L21.154125,17.4947661 L6.90071321,12.5013097 L14.6415266,7.8970922 Z M6.60841118,18.6277652 L8.02872586,19.1655704 C7.70858684,19.9092761 7.25508161,21.5204244 7.84945184,23.9030851 L6.52944866,23.4016089 C6.35444443,22.9054591 5.88703982,21.1982712 6.60841391,18.6277652 L6.60841118,18.6277652 Z M19.0476382,28.1377852 C18.6645586,26.5639765 18.6869593,24.9198043 19.111666,23.3576591 L20.9182837,24.0405342 C20.4466121,25.6004669 20.4338273,27.2628856 20.8809346,28.829128 L19.0476382,28.1377852 Z M28.0210373,21.6365405 C28.0775936,21.7347052 28.0925338,21.851007 28.0626534,21.9609062 C28.0338412,22.0697401 27.9612793,22.1625674 27.863104,22.2191177 L24.832451,23.9668411 C24.7342758,24.0244594 24.6179614,24.0404632 24.5080504,24.0116541 C24.3981394,23.9817769 24.3042339,23.9102908 24.2476776,23.8121262 C24.1900531,23.7139615 24.1751157,23.5965944 24.2049933,23.4866952 C24.2348737,23.376796 24.3074356,23.2839659 24.4056108,23.2274157 L27.4362638,21.4775617 C27.5355045,21.4210114 27.6518188,21.4060729 27.7617299,21.43595 C27.8716409,21.4658272 27.9644809,21.5383813 28.0210373,21.636546 L28.0210373,21.6365405 Z M27.6868972,17.5198541 C27.7850724,17.4622358 27.9024522,17.4462319 28.0123632,17.4750411 C28.1222742,17.5038502 28.2151143,17.5764043 28.272736,17.674569 C28.3292923,17.7727337 28.3442325,17.8901008 28.3143522,18 C28.2844718,18.1098992 28.212978,18.2027292 28.1137346,18.2592795 L22.6119418,21.3955757 C22.4070572,21.5129456 22.1466898,21.44359 22.0282392,21.2387275 C21.9108567,21.034933 21.9802197,20.7735256 22.1851043,20.656153 L27.6868972,17.5198541 Z" id="Shape" fill="#A7A7A7"></path>
    </g>
</svg>