<?xml version="1.0" encoding="UTF-8"?>
<svg width="36px" height="36px" viewBox="0 0 36 36" version="1.1" xmlns="http://www.w3.org/2000/svg" xmlns:xlink="http://www.w3.org/1999/xlink">
    <!-- Generator: Sketch 59.1 (86144) - https://sketch.com -->
    <title>Icon / Menu / Print / Brochures</title>
    <desc>Created with Sketch.</desc>
    <g id="Icon-/-Menu-/-Print-/-Brochures" stroke="none" stroke-width="1" fill="none" fill-rule="evenodd">
        <rect id="Rectangle-Copy-2" fill="#FFFFFF" x="0" y="0" width="36" height="36" rx="4"></rect>
        <path d="M26.772155,9.88889139 L22.0379777,9.88889139 L22.0379777,6.55555806 C22.0379777,6.5468775 22.0347142,6.53928194 22.0347142,6.52734694 C22.0347142,6.50781556 22.0314507,6.48611361 22.0292752,6.46658306 C22.0260117,6.45030694 22.0238362,6.43294694 22.0183972,6.41666917 C22.0129579,6.40039306 22.0075189,6.38086083 22.0020799,6.36349972 C21.9966406,6.34396833 21.9879381,6.32769139 21.9803235,6.30816083 C21.9748845,6.29948028 21.9748845,6.29188472 21.9694452,6.28320417 C21.9629185,6.27777889 21.9574795,6.27235361 21.9542159,6.26692833 C21.9433376,6.25065222 21.9324596,6.23329222 21.9204947,6.21918389 C21.9096164,6.20507806 21.8987384,6.19097278 21.8867734,6.17795056 C21.8758954,6.16384472 21.8617538,6.15299389 21.8476134,6.14214222 C21.8334719,6.13129139 21.8193309,6.11718556 21.8062757,6.10850611 C21.7921342,6.09765528 21.7758154,6.08897472 21.7616742,6.080295 C21.7475326,6.07161444 21.7312167,6.06401917 21.7170727,6.05533861 C21.7007553,6.04665806 21.6811737,6.04123278 21.6637686,6.03580722 C21.6474513,6.03038194 21.6333084,6.02495667 21.6159033,6.02170139 C21.5963225,6.01627611 21.5800043,6.01302083 21.5604243,6.01085056 C21.544107,6.00759556 21.5245253,6.00542528 21.5071203,6.00542528 C21.49733,6.00325528 21.4897152,6 21.4810127,6 L9.2278481,6 C7.99969114,6 7,6.99716667 7,8.22222222 L7,24.8888889 C7,26.1139444 7.99969114,27.1111111 9.2278481,27.1111111 L13.9620253,27.1111111 L13.9620253,30.4444444 C13.9620253,30.7504444 14.2122238,31 14.5189873,31 L26.7721519,31 C28.0003089,31 29,30.0028333 29,28.7777778 L29,12.1111111 C29,10.8860556 28.0003089,9.88888889 26.7721519,9.88888889 L26.772155,9.88889139 Z M16.652155,9.88889139 L20.9240537,7.50283583 L20.9240537,9.88889139 L16.652155,9.88889139 Z M9.22785116,26.0000025 C8.61215749,26.0000025 8.11392711,25.5030303 8.11392711,24.8888914 L8.11392711,8.22222472 C8.11392711,7.60808583 8.61215749,7.11111361 9.22785116,7.11111361 L19.3445094,7.11111361 L14.2458005,9.95833583 C14.2403615,9.96159111 14.2349225,9.96701639 14.2294835,9.96918639 C14.2131662,9.98003722 14.1957622,9.99088806 14.1816182,10.0028225 C14.1674766,10.0136733 14.1533356,10.0245239 14.1424582,10.0364586 C14.1283164,10.0473092 14.1174383,10.0614153 14.1065592,10.0755197 C14.0956812,10.0896256 14.0815396,10.1037308 14.0728379,10.1167531 C14.0619596,10.1308592 14.0532571,10.1471364 14.0445554,10.1612419 C14.0358537,10.1753475 14.0282381,10.1916253 14.0195355,10.2089864 C14.010833,10.2252625 14.005394,10.2426225 13.999955,10.2589003 C13.994516,10.2751764 13.9890767,10.2925364 13.9836377,10.3088142 C13.9803742,10.32509 13.9781987,10.3424503 13.9749351,10.3587281 C13.9716716,10.3782594 13.9694961,10.3977892 13.9694961,10.4173225 C13.9694961,10.4260031 13.9662326,10.4314283 13.9662326,10.4390239 L13.9662326,25.9945794 L9.2275997,25.9945794 L9.22785116,26.0000025 Z M27.886079,28.7777803 C27.886079,29.3919192 27.3878486,29.8888914 26.772155,29.8888914 L15.0759524,29.8888914 L15.0759524,11.0000025 L26.772155,11.0000025 C27.3878486,11.0000025 27.886079,11.4969747 27.886079,12.1111136 L27.886079,28.7777803 Z M26,14.5 C26,14.7754 25.7621776,15 25.4705882,15 L17.5294118,15 C17.2378118,15 17,14.77539 17,14.5 C17,14.22461 17.2378224,14 17.5294118,14 L25.4705882,14 C25.7621882,14 26,14.22461 26,14.5 Z M26,17.5 C26,17.7754 25.7621776,18 25.4705882,18 L17.5294118,18 C17.2378118,18 17,17.77539 17,17.5 C17,17.22461 17.2378224,17 17.5294118,17 L25.4705882,17 C25.7621882,17 26,17.22461 26,17.5 Z M26,20.5 C26,20.7754 25.7621776,21 25.4705882,21 L17.5294118,21 C17.2378118,21 17,20.77539 17,20.5 C17,20.22461 17.2378224,20 17.5294118,20 L25.4705882,20 C25.7621882,20 26,20.22461 26,20.5 Z" id="Shape" fill="#A7A7A7"></path>
    </g>
</svg>