<?xml version="1.0" encoding="UTF-8"?>
<svg width="36px" height="36px" viewBox="0 0 36 36" version="1.1" xmlns="http://www.w3.org/2000/svg" xmlns:xlink="http://www.w3.org/1999/xlink">
    <!-- Generator: Sketch 59.1 (86144) - https://sketch.com -->
    <title>Icon / Menu / Home / Other</title>
    <desc>Created with Sketch.</desc>
    <g id="Icon-/-Menu-/-Home-/-Other" stroke="none" stroke-width="1" fill="none" fill-rule="evenodd">
        <rect id="Rectangle-Copy-3" fill="#FFFFFF" x="0" y="0" width="36" height="36" rx="4"></rect>
        <g id="np_love-balloons_1065126_000000" transform="translate(5.000000, 2.000000)" fill="#A7A7A7" stroke="#A7A7A7" stroke-width="0.2">
            <path d="M7.93417882,17.1653659 L9.40417527,17.2067737 L10.3142874,18.3889875 C10.4022498,18.5159463 10.4445422,18.6841273 10.3582686,18.8110861 C10.286374,18.9526087 10.1839368,19.034592 10.0519345,19.0579886 L9.96919308,19.0650037 L9.10307956,19.0650037 L9.10138804,21.6833236 C9.10138804,22.4005536 9.22995394,23.1177835 9.49046356,23.7938166 C10.058201,25.2576546 10.0936846,26.870777 9.59691432,28.3532755 L9.49046356,28.6479506 L9.0574068,29.7460824 C9.01511448,29.9159095 8.84087842,30 8.66833129,30 C8.58205772,30 8.5397654,29.9571317 8.49578415,29.9571317 C8.30331448,29.8823921 8.17901158,29.6734481 8.21435757,29.4797121 L8.23527453,29.4080658 L8.66833129,28.3099341 C9.18765295,26.9165021 9.18765295,25.439157 8.66833129,24.0458939 C8.44503732,23.3943666 8.28636886,22.7125723 8.24559204,21.9994477 L8.23527453,21.6402696 L8.23527453,19.0235959 L7.36916101,19.0235959 C7.19661388,19.0235959 7.06635906,18.8966371 6.9800855,18.7696782 C6.90819086,18.6638792 6.92675095,18.5294537 6.98486155,18.4141125 L7.02406674,18.3475796 L7.93417882,17.1653659 Z M8.66666667,0 C12.5471644,0 15.8319976,2.52562883 16.9364645,6.00754106 L21.7086585,6.00787805 C24.078701,6.00787805 26,7.92917707 26,10.2992195 L26,15.4488293 C26,17.8188717 24.078701,19.7401707 21.7086585,19.7401707 L20.129,19.74 L20.7092666,20.4948712 C20.7955402,20.62183 20.8395214,20.790011 20.7532478,20.9169698 C20.6652853,21.0851508 20.5350262,21.1692413 20.3624834,21.1692413 L19.4963699,21.1692413 L19.4963699,22.7735537 C19.4963699,23.4495868 19.3238227,24.0827347 19.0193146,24.6729974 C18.5422592,25.6441619 18.5422592,26.7834904 19.0193146,27.7546549 L19.4523713,28.5559669 C19.5386449,28.7670162 19.4523713,29.0209507 19.2798242,29.1050328 C19.1935506,29.1891233 19.1495694,29.1891233 19.0632958,29.1891233 C18.8907487,29.1891233 18.7604939,29.1050328 18.6742203,28.9352056 L18.2411635,28.1338936 C17.635577,26.9516798 17.635577,25.5172199 18.2411635,24.3350062 C18.5016732,23.8700223 18.630239,23.3226449 18.630239,22.8147758 L18.630239,21.1692666 L17.7641255,21.1692666 C17.5915784,21.1692666 17.4613236,21.0851761 17.37505,20.915349 C17.2887764,20.7883901 17.3310688,20.6202092 17.4190313,20.4932504 L17.999,19.74 L16.4246748,19.7401707 C14.3826921,19.7401707 12.6738212,18.3139497 12.2398638,16.4033095 C11.1510687,16.8930009 9.94098602,17.1653659 8.66666667,17.1653659 C3.88019884,17.1653659 -1.15463195e-13,13.3227678 -1.15463195e-13,8.58268293 C-1.15463195e-13,3.84259803 3.88019884,0 8.66666667,0 Z M17.3333333,8.58268293 C17.3333333,11.7419187 15.6096963,14.5024787 13.0429001,15.992417 C13.2933651,17.5693395 14.6185863,18.7888923 16.2447101,18.8768226 L16.4330732,18.8819024 L21.7002602,18.8819024 C23.533093,18.8819024 25.0304652,17.4456247 25.1282535,15.6371924 L25.1333333,15.4488293 L25.1333333,10.2992195 C25.1333333,8.40318555 23.5962941,6.86614634 21.7002602,6.86614634 L17.1597932,6.86529063 C17.2735928,7.42018591 17.3333333,7.99452545 17.3333333,8.58268293 Z M8.66666667,0.858268293 C4.35884562,0.858268293 0.866666667,4.31660652 0.866666667,8.58268293 C0.866666667,12.8487593 4.35884562,16.3070976 8.66666667,16.3070976 C12.9744877,16.3070976 16.4666667,12.8487593 16.4666667,8.58268293 C16.4666667,4.31660652 12.9744877,0.858268293 8.66666667,0.858268293 Z" id="Combined-Shape"></path>
        </g>
    </g>
</svg>