<?xml version="1.0" encoding="UTF-8"?>
<svg width="36px" height="36px" viewBox="0 0 36 36" version="1.1" xmlns="http://www.w3.org/2000/svg" xmlns:xlink="http://www.w3.org/1999/xlink">
    <!-- Generator: Sketch 59.1 (86144) - https://sketch.com -->
    <title>Icon / Menu / Apparel / T-shirts</title>
    <desc>Created with Sketch.</desc>
    <g id="Icon-/-Menu-/-Apparel-/-T-shirts" stroke="none" stroke-width="1" fill="none" fill-rule="evenodd">
        <rect id="Rectangle" fill="#FFFFFF" x="0" y="0" width="36" height="36" rx="4"></rect>
        <g id="Icon" transform="translate(6.000000, 7.000000)">
            <path d="M23.9217508,7.6476255 L19.5666227,0.678823605 C19.4864161,0.550846532 19.3541249,0.465178301 19.206202,0.446141217 L15.7718588,0.00404549349 C15.5833205,-0.0202806017 15.3958116,0.0664473807 15.2906134,0.228266654 C14.644784,1.21821667 13.3844049,1.83378785 12,1.83378785 C10.6166906,1.83378785 9.35524476,1.21824375 8.70938876,0.228266654 C8.6041825,0.0664446731 8.41771358,-0.0202822262 8.22814338,0.00404549349 L4.79380011,0.446141217 C4.64588522,0.465178843 4.51359141,0.550849239 4.4333794,0.678823605 L0.0782513493,7.6476255 C-0.0467465857,7.84646569 -0.0196643664,8.10664368 0.142834282,8.27586822 L3.82304015,12.1109024 C3.91783059,12.2092638 4.04699379,12.2642632 4.18242088,12.2642632 L4.18554563,12.2642632 C4.32200204,12.2632056 4.45220789,12.2060932 4.54596634,12.1066732 L4.88972066,11.7407149 L4.88972066,21.4902145 C4.88972066,21.7715604 5.11471695,22 5.39075239,22 L18.611334,22 C18.8884227,22 19.1134057,21.7715469 19.1134057,21.4902145 L19.1123641,11.7396319 L19.4550784,12.1055901 C19.5488262,12.2060662 19.6790321,12.2621215 19.8154992,12.2631801 C19.9540382,12.2642377 20.0821614,12.2081835 20.1769598,12.1098194 L23.8571657,8.27478518 C24.0196644,8.10661931 24.0467466,7.84644403 23.9217487,7.64759843 L23.9217508,7.6476255 Z M19.8228852,11.0215567 L19.2978805,10.4620597 L19.1114249,5.98505533 C19.0999667,5.7079603 18.8718449,5.4932482 18.5999667,5.49747205 C18.3270645,5.50381783 18.1093615,5.72909847 18.1093615,6.00620163 L18.1093615,19.8054474 C17.9708224,19.8054474 17.8593656,19.9196727 17.8593656,20.0592842 C17.8593656,20.1999518 17.9708224,20.3131211 18.1093615,20.3131211 L18.1093615,20.9794325 L5.89089666,20.9794325 L5.89089666,20.2972546 C5.98776972,20.262351 6.05860322,20.1703362 6.05860322,20.0592815 C6.05860322,19.9492856 5.98777239,19.8572708 5.89089666,19.8213085 L5.89089666,6.00635867 C5.89089666,5.72926364 5.67319092,5.50290889 5.40029143,5.49762909 C5.12112271,5.48916786 4.90029969,5.70810109 4.88883321,5.98521237 L4.70342027,10.4611337 L4.17841561,11.0206307 L1.13899916,7.85301806 L5.15546614,1.42681773 L8.06155146,1.05241182 C8.92716383,2.17034974 10.4052727,2.8525277 12.0001531,2.8525277 C13.5950334,2.8525277 15.0729023,2.17034974 15.9395547,1.05241182 L18.84564,1.42681773 L22.862107,7.85301806 L19.8228852,11.0215567 Z" id="Combined-Shape" fill="#A7A7A7"></path>
            <rect id="Rectangle" fill="#A7A7A7" x="5" y="19" width="14" height="1"></rect>
            <path d="M8.5,1.00182042 C8.9602382,3.66727347 10.2100457,5 12.2494224,5 C14.2887991,5 15.5389916,3.66666667 16,1" id="Path-6" stroke="#A7A7A7"></path>
        </g>
    </g>
</svg>