<?xml version="1.0" encoding="UTF-8"?>
<svg width="36px" height="36px" viewBox="0 0 36 36" version="1.1" xmlns="http://www.w3.org/2000/svg" xmlns:xlink="http://www.w3.org/1999/xlink">
    <!-- Generator: Sketch 59.1 (86144) - https://sketch.com -->
    <title>Icon / Menu / Print / Frames</title>
    <desc>Created with Sketch.</desc>
    <g id="Icon-/-Menu-/-Print-/-Frames" stroke="none" stroke-width="1" fill="none" fill-rule="evenodd">
        <rect id="Rectangle-Copy-6" fill="#FFFFFF" x="0" y="0" width="36" height="36" rx="4"></rect>
        <path d="M18.0005486,7 C18.4173448,7 18.7720124,7.30666667 18.840587,7.70383407 L18.840587,7.70383407 L27.3084484,12.9640533 L29.428911,12.9640533 C29.7428454,12.9640533 30,13.2196089 30,13.5315911 L30,13.5315911 L30,29.4324622 C30,29.7444444 29.7428454,30 29.428911,30 L29.428911,30 L6.57108896,30 C6.25715461,30 6,29.7444172 6,29.4313719 L6,29.4313719 L6,13.5305007 C6,13.2185185 6.25715461,12.962963 6.57108896,12.962963 L6.57108896,12.962963 L8.69155161,12.962963 L17.1605102,7.70383407 C17.2290848,7.30666667 17.5837524,7 18.0005486,7 Z M28.858645,14.0991289 L7.14300082,14.0991289 L7.14300082,28.8638594 L28.858645,28.8649244 L28.858645,14.0991289 Z M27.1434945,15.2341957 C27.4584986,15.2341957 27.7156532,15.4897513 27.7156532,15.8017335 L27.7156532,15.8017335 L27.7156532,27.1601216 C27.7156532,27.188872 27.7038669,27.2112333 27.7049383,27.2346594 C27.699581,27.2793809 27.699581,27.3198446 27.6824373,27.3592424 C27.6652937,27.3986402 27.6363637,27.4327142 27.6138628,27.4667883 C27.5967191,27.4944728 27.5849325,27.5178992 27.5677889,27.5402602 C27.5613602,27.5402602 27.5560028,27.5455845 27.5560028,27.5455845 C27.509929,27.5966956 27.453141,27.6360934 27.3899235,27.6648437 C27.3792086,27.6701677 27.3727798,27.6765565 27.3674225,27.6818808 C27.2988479,27.7106311 27.2249163,27.7276681 27.1445552,27.7276681 L27.1445552,27.7276681 L8.85763921,27.7276681 C8.54370486,27.7276681 8.28655024,27.4721126 8.28655024,27.1601304 L8.28655024,27.1601304 L8.28655024,15.8017422 C8.28655024,15.48976 8.54370486,15.2341957 8.85763921,15.2341957 L8.85763921,15.2341957 Z M14.0062174,19.9651852 L9.42872817,24.0082785 L9.42872817,26.5925926 L13.178111,26.5925926 L16.9379172,22.5154252 L14.0062174,19.9651852 Z M19.7489257,21.1512525 L18.1888543,22.8379191 C18.1888543,22.8443081 18.1888543,22.8443081 18.183497,22.8496322 C18.183497,22.8560212 18.177068,22.8560212 18.1717107,22.8613452 L18.1717107,22.8613452 L14.725976,26.5925926 L25.6806254,26.5913828 L19.7489257,21.1512525 Z M26.572369,16.3699615 L9.42859102,16.3699615 L9.42859102,22.4863941 L13.6245314,18.7894933 C13.8356039,18.6020859 14.1613413,18.6020859 14.3788516,18.7894933 L14.3788516,18.7894933 L17.7102039,21.6857896 L19.2927677,19.9650489 C19.3956295,19.8564371 19.5381275,19.7882889 19.6924202,19.7829652 C19.846713,19.7776415 19.9956487,19.8287526 20.1038676,19.9309748 L20.1038676,19.9309748 L26.572369,25.8653156 L26.572369,16.3699615 Z M24.286916,17.5062637 C25.5490994,17.5062637 26.572369,18.52208 26.572369,19.7775052 C26.572369,21.03184 25.5501966,22.0487467 24.286916,22.0487467 C23.0247326,22.0487467 22.0014629,21.0329304 22.0014629,19.7775052 C22.0014629,18.5231704 23.0236354,17.5062637 24.286916,17.5062637 Z M24.286916,18.6413393 C23.6579501,18.6413393 23.1436409,19.1524504 23.1436409,19.7775052 C23.1436409,20.40256 23.6579501,20.9136711 24.286916,20.9136711 C24.9148121,20.9136711 25.4291194,20.40256 25.4301911,19.7775052 C25.4301911,19.1524504 24.9158819,18.6413393 24.286916,18.6413393 Z M18.2350571,8.66962963 C18.160053,8.68666667 18.0807644,8.7037037 18.0004032,8.7037037 C17.9200421,8.7037037 17.8396809,8.69199067 17.7657493,8.66962963 L17.7657493,8.66962963 L10.8514968,12.962963 L25.1492932,12.962963 Z" id="Combined-Shape" fill="#A7A7A7"></path>
    </g>
</svg>