<?xml version="1.0" encoding="UTF-8"?>
<svg width="36px" height="36px" viewBox="0 0 36 36" version="1.1" xmlns="http://www.w3.org/2000/svg" xmlns:xlink="http://www.w3.org/1999/xlink">
    <!-- Generator: Sketch 59.1 (86144) - https://sketch.com -->
    <title>Icon / Menu / Apparel / Hoodies</title>
    <desc>Created with Sketch.</desc>
    <g id="Icon-/-Menu-/-Apparel-/-Hoodies" stroke="none" stroke-width="1" fill="none" fill-rule="evenodd">
        <rect id="Rectangle-Copy-3" fill="#FFFFFF" x="0" y="0" width="36" height="36" rx="4"></rect>
        <path d="M17.2272384,5 L19.7790685,5.0022724 C19.8429575,5.0022724 19.9081255,5.01385814 19.9681807,5.03831368 L19.9681807,5.03831368 L21.2459607,5.55316553 C21.2996273,5.57504797 21.3494601,5.60593908 21.3916286,5.64583886 L21.3916286,5.64583886 L23.3683897,7.38733965 L26.5948315,8.63586774 L26.6050539,8.63586774 C27.5736112,9.02587007 28.2470152,9.92943919 28.3479599,10.9745967 L28.3479599,10.9745967 L29.9976051,28.1154563 C30.0167741,28.31368 29.91966,28.5054619 29.7497135,28.6071439 L29.7497135,28.6071439 L29.7497135,30.4850598 C29.7497135,30.7695151 29.5209875,31 29.2385949,31 L29.2385949,31 L26.6830023,31 C26.4006098,31 26.1718838,30.7695151 26.1718838,30.4850598 L26.1718838,30.4850598 L26.1731615,30.4850598 L26.1731615,28.6830619 L19.0175022,28.6830619 L19.0175022,29.7127656 L24.895447,29.7127656 L24.895447,30.7424693 L11.8605345,30.7424693 L11.8605345,27.6533582 L17.9926483,27.6520712 L17.9926483,9.50885679 L16.9704112,9.2231132 L16.9704112,15.0395387 L15.9481742,15.0395387 L15.9481742,8.93842072 L13.9241448,8.37078214 L10.7769305,9.58968771 C10.1623125,9.83810167 9.73808253,10.4083104 9.67291451,11.072461 L9.67291451,11.072461 L8.07184596,27.6495373 L10.1226988,27.6482502 L11.6023747,14.9751514 L12.6182329,15.0935657 L11.0848774,28.2223702 C11.0669874,28.3832708 10.9749893,28.5248559 10.8369857,28.6072322 L10.8369857,28.6072322 L10.8369857,30.4851482 C10.8369857,30.7696034 10.6082598,31 10.3258672,31 L10.3258672,31 L7.77027459,31 C7.48788201,31 7.25915607,30.7696034 7.25915607,30.4851482 L7.25915607,30.4851482 L7.25915607,28.6098024 C7.08409675,28.5106872 6.98315108,28.3163385 7.00231778,28.1142595 L7.00231778,28.1142595 L7.00231778,28.1129721 L8.65706604,10.971124 C8.75928974,9.92596653 9.43013893,9.02239742 10.3986963,8.63239509 L10.3986963,8.63239509 L10.4089186,8.63239509 L13.6353604,7.383867 L15.6121215,5.64236621 C15.6555658,5.60246642 15.7054019,5.571574 15.7590685,5.54969287 L15.7590685,5.54969287 L15.7603462,5.54969287 L17.0381262,5.03484103 C17.0981814,5.0116722 17.1620704,4.99880107 17.2272384,5 L17.2272384,5 Z M9.81756056,28.6730255 L8.28420499,28.6730255 L8.28292924,29.9653139 L9.81756056,29.9640268 L9.81756056,28.6730255 Z M28.7300907,28.6730255 L27.1967352,28.6730255 L27.1954594,29.9627417 L28.7300907,29.9627417 L28.7300907,28.6730255 Z M12.8841081,28.6730255 L12.8827997,29.7040162 L17.9939849,29.7040162 L17.9939849,28.6743126 L12.8841081,28.6730255 Z M23.0809635,8.3659506 L21.060696,8.93220197 L21.060696,13.4912357 L20.0384589,13.4912357 L20.0384589,9.21920098 L19.0162219,9.50494458 L19.0162219,27.6481589 L25.8486907,27.6481589 L24.3817724,15.0910459 L25.3976307,14.9726284 L26.8773065,27.6457272 L28.9294351,27.6457272 L27.3283666,11.0663444 C27.2644809,10.4021938 26.8402443,9.83327343 26.2243506,9.58485618 L26.2243506,9.58485618 L23.0809635,8.3659506 Z M15.41012,21.4727086 C15.5928338,21.4636966 15.7666141,21.5537965 15.866283,21.7082521 C15.9659503,21.8626911 15.9748969,22.0596397 15.8918389,22.2231039 L15.8918389,22.2231039 L15.8905612,22.2231039 L14.61916,24.7857646 C14.5591048,24.909329 14.4530473,25.0032907 14.3239903,25.0470523 C14.1949399,25.0908132 14.0531024,25.0818045 13.931713,25.0200223 C13.8090446,24.9582401 13.7170432,24.8501196 13.6748747,24.7201199 C13.6314305,24.5888384 13.6429286,24.4472533 13.7055418,24.3249773 L13.7055418,24.3249773 L14.976943,21.7623166 C15.058722,21.5937022 15.2235524,21.4830082 15.4101098,21.4727112 Z M21.5320902,21.472727 C21.7416341,21.4572831 21.9396929,21.5718389 22.0316943,21.7623324 L22.0316943,21.7623324 L23.3030954,24.3249931 C23.3657074,24.4472659 23.3759311,24.5888476 23.3337626,24.7201357 C23.291594,24.8501387 23.1983137,24.9582559 23.0769243,25.0200381 C22.9542624,25.081821 22.813704,25.0908297 22.6846469,25.0470681 C22.5555899,25.0033065 22.4482534,24.9093448 22.3881982,24.7857804 L22.3881982,24.7857804 L21.116797,22.2231197 C21.0375722,22.0699328 21.0401302,21.8871661 21.124464,21.7365724 C21.2075219,21.5846902 21.3608575,21.4868694 21.532083,21.4727112 Z M15.9047286,6.74544412 L14.9489615,7.58851608 L17.246427,8.23207265 L15.9047286,6.74544412 Z M21.1029266,6.74544412 L19.7650882,8.22693237 L22.0574507,7.58594594 L21.1029266,6.74544412 Z M19.6805942,6.0259366 L17.3217945,6.0259366 L16.819639,6.22673376 L18.505038,8.09565421 L20.1878855,6.2293039 L19.6805942,6.0259366 Z" id="Combined-Shape" fill="#A7A7A7"></path>
    </g>
</svg>