<svg height="36" viewBox="0 0 36 36" width="36" xmlns="http://www.w3.org/2000/svg"><g fill="none" fill-rule="evenodd"><rect fill="#fff" height="36" rx="4" width="36"/><path d="m26.8061596 5c1.2069047 0 2.1938404.93212817 2.1938404 2.0690204v21.8619592c0 1.1382371-.9869357 2.0690204-2.1938404 2.0690204h-9.7622243c-.4384756 0-.8783991-.1373967-1.2069047-.3448367-.291342-.1724184-.5113111-.4135351-.6941311-.6896735-.1099773-.2074538-.2185285-.4485567-.2556629-.6896735-.0371344-.10372-.0371344-.2411167-.0371344-.3448367v-21.8619592c0-.10371999 0-.24111674.0371344-.34483673.0357084-.24110985.1099772-.48223349.2556629-.68967347.18282-.27614526.4013338-.5172551.6941311-.68967347.3299536-.20743998.7684291-.34483673 1.2069047-.34483673zm-13.3620873.34483673c-.1828127.20745378-.3284983.44855673-.4384756.68967347-.1099772.20745378-.1471127.44855672-.18282.68967347h-2.96226961c-.40277447 0-.73128014.30980132-.73128014.68967346v21.17228577c0 .3798583.32849104.6896734.73128014.6896734h2.96226961c.0371344.2411099.0728428.4822335.18282.6896735.1099699.2411098.2556556.4822335.4384756.6896735h-3.58356521c-1.20690474 0-2.19384042-.9307833-2.19384042-2.0690204v-21.17228577c0-1.13823709.98693568-2.0690204 2.19384042-2.0690204zm5.0624233 1.0345102h-1.4625603c-.2556555 0-.5113184.13739675-.6212956.34483674-.0728428.10371999-.1099772.20743998-.1099772.34483673v21.8633385c0 .1373968.0371344.2411168.1099772.3448368.1099845.20744.3656328.3448367.6212956.3448367h9.7622243c.4027744 0 .7312801-.3098013.7312801-.6896735v-21.8633385c0-.37985835-.328491-.68967347-.7312801-.68967347h-1.4625603c0 .27614526-.1456856.5172551-.3656401.68967347-.145671.10371999-.3285056.17241836-.5484601.17241836h-5.0089033c-.2199545 0-.4027745-.06869837-.5484601-.17241836-.1099773-.10371999-.2199545-.20743999-.2927973-.34483673-.0357084-.10372-.0728428-.20743999-.0728428-.34483674zm-7.4036898 1.24210191c.5113111 0 .9141002.37987215.9141002.86209184v2.31013022c0 .4822197-.4027891.8620919-.9141002.8620919s-.9141002-.3798722-.9141002-.8620919v-2.31013022c0-.44856362.4027891-.86209184.9141002-.86209184z" fill="#a7a7a7"/></g></svg>