<svg height="36" viewBox="0 0 36 36" width="36" xmlns="http://www.w3.org/2000/svg"><g fill="none" fill-rule="evenodd"><rect fill="#fff" height="36" rx="4" width="36"/><path d="m13.235479 5v3.24999675h1.0591239v1.08266492h7.4118342v-1.08266492h1.0581329v-3.24999675h1.0591239v3.24999675h1.0581328l.0009928 1.08266492h2.1171805v1.08367893l-.0009928 19.4999805v1.0836789h-17.9990072v-21.66733833h2.1192134v-1.08266492h1.0581328v-3.24999675zm-2.1171787 5.4163406h-1.0591238v19.4999805h15.8817759l-.0009911-19.4999805h-1.0581328v1.0836789h-3.1763552v-1.0836789h-7.4108178v1.0836789h-3.1763552zm8.9989954 16.2499837c.2928117 0 .5300448.2427358.5300448.5413195 0 .2996003-.2372357.5423335-.5300448.5423335h-4.2344626c-.2928117 0-.5300447-.2427358-.5300447-.5413195 0-.2996003.2372356-.5423335.5300447-.5423335zm2.1182478-2.1663178c.2918206 0 .5290537.2427358.5290537.5413195 0 .3006143-.2362446.5423334-.5290537.5423334h-8.4709581c-.2928117 0-.5300448-.2427357-.5300448-.5423334 0-.2985863.2372356-.5413195.5300448-.5413195zm-2.9123874-9.7499383 4.2354791 7.5836725h-11.1172432l3.1763552-5.4163146 1.2784703 2.1795258zm-3.7054597 4.2717178-1.3062697 2.2282757h1.3817145l.6005344-1.0755409zm3.7053327-2.0882399-2.4110569 4.3165156h4.8211227zm4.500692-7.60088443h-1.0591239v1.08367893h1.0591239zm-10.5891805 0h-1.0581328v1.08367893h1.0581328z" fill="#a7a7a7"/></g></svg>