<?xml version="1.0" encoding="UTF-8"?>
<svg width="36px" height="36px" viewBox="0 0 36 36" version="1.1" xmlns="http://www.w3.org/2000/svg" xmlns:xlink="http://www.w3.org/1999/xlink">
    <!-- Generator: Sketch 59.1 (86144) - https://sketch.com -->
    <title>Icon / Menu / Home / Candles</title>
    <desc>Created with Sketch.</desc>
    <g id="Icon-/-Menu-/-Home-/-Candles" stroke="none" stroke-width="1" fill="none" fill-rule="evenodd">
        <rect id="Rectangle-Copy-3" fill="#FFFFFF" x="0" y="0" width="36" height="36" rx="4"></rect>
        <path d="M26.1818182,9.18265221 L20.6181818,9.18265221 C19.7181818,7.74145121 18.8181818,6.54057848 18.6545455,6.30025021 C18.3272727,5.8999166 17.6727273,5.8999166 17.3454545,6.30025021 C17.1818182,6.54045038 16.2,7.74145121 15.3818182,9.18265221 L9.81818182,9.18265221 C9.32727273,9.18265221 9,9.5029191 9,9.98331943 L9,25.9966639 C9,28.2385321 10.8,30 13.0909091,30 L22.9090909,30 C25.2,30 27,28.2385321 27,25.9966639 L27,9.98331943 C27,9.5029191 26.6727273,9.18265221 26.1818182,9.18265221 Z M25,11 L25,19 L19,19 L19,18.2 C20.875,17.8 22.3,15.96 22.3,13.72 C22.3,13 22,11.96 21.475,11 L25,11 Z M16.4409746,11 L19.5292099,11 C20.1174452,12.2173631 20.4850923,13.2608171 20.4850923,13.9564532 C20.4850923,15.3477253 19.7497982,16.5650883 18.7203864,17 L18.7203864,15.3478644 C18.7203864,14.8261374 18.4262688,14.4783193 17.9850923,14.4783193 C17.5439158,14.4783193 17.2497982,14.8261374 17.2497982,15.3478644 L17.2497982,17 C16.2203864,16.5652275 15.4850923,15.4348189 15.4850923,13.9564532 C15.4850923,13.2608171 15.9262688,12.2173631 16.4409746,11 Z M17.9705882,8 C18.1470588,8.30769231 18.3235294,8.61538462 18.5,9 L17.5,9 C17.6176471,8.69230769 17.7941176,8.30769231 17.9705882,8 Z M14.525,11 C14.075,11.96 13.7,13 13.7,13.72 C13.7,15.96 15.125,17.800128 17,18.2 L17,19 L11,19 L11,11 L14.525,11 Z M22.6666667,28 L13.3333333,28 C12.0111111,28 11,26.96 11,25.6 L11,21 L25,21 L25,25.6 C25,26.96 23.9888889,28 22.6666667,28 Z" id="Shape" stroke="#FFFFFF" stroke-width="0.8" fill="#A7A7A7" fill-rule="nonzero"></path>
    </g>
</svg>