<?xml version="1.0" encoding="UTF-8"?>
<svg width="36px" height="36px" viewBox="0 0 36 36" version="1.1" xmlns="http://www.w3.org/2000/svg" xmlns:xlink="http://www.w3.org/1999/xlink">
    <!-- Generator: Sketch 59.1 (86144) - https://sketch.com -->
    <title>Icon / Menu / Packaging / Beverages</title>
    <desc>Created with Sketch.</desc>
    <g id="Icon-/-Menu-/-Packaging-/-Beverages" stroke="none" stroke-width="1" fill="none" fill-rule="evenodd">
        <rect id="Rectangle-Copy-4" fill="#FFFFFF" x="0" y="0" width="36" height="36" rx="4"></rect>
        <path d="M6.99605997,21.4689402 C6.99593504,23.6600813 8.06421952,24.7143734 9.96714317,25.0099487 L9.96714317,32 L7.30777032,32 C6.91550232,32 6.59855977,32.1791858 6.59855977,32.5146024 C6.59855977,32.8511552 6.91549891,33 7.30777032,33 L13.5735734,33 C13.9645138,33 14.2823978,32.8511581 14.2823978,32.5146024 C14.2823978,32.1791887 13.9645172,32 13.5735734,32 L11.0027872,32 L11.0027872,25.0099487 C12.9070385,24.714461 13.9972519,23.6175246 13.9972519,21.4689402 L13.9972519,15.6208139 C13.9985815,15.4599473 13.9227846,15.3047937 13.7898056,15.1906817 C13.6568301,15.0765932 13.4773087,15.0127028 13.2884665,15.0127028 L7.70472039,15.0127028 C7.51722289,15.0127028 7.33638404,15.0765932 7.20338125,15.1906817 C7.0704057,15.3047732 6.99593504,15.4599356 6.99593504,15.6208139 L6.99605997,21.4689402 Z M7.99743782,16.0127028 L12.9972858,16.0127028 L12.9972858,21.1006654 C12.9972858,22.6506672 12.2107022,24.0127028 10.5562116,24.0127028 C8.90172108,24.0127028 7.99593504,22.5905653 7.99593504,21.1006654 L7.99743782,16.0127028 Z" id="Shape" fill="#A7A7A7" fill-rule="nonzero"></path>
        <path d="M22.0031413,3.66341831 C22.0031413,3.48792192 21.9409421,3.31865797 21.8298736,3.19416826 C21.7188023,3.06970086 21.5677472,3 21.4100187,3 L17.5902089,3 C17.4324889,3 17.2825541,3.06970086 17.1714629,3.19416826 C17.0603944,3.31863248 16.9970835,3.48790599 16.9970835,3.66341831 L16.9970835,12.9200105 C15.8008694,13.3655862 14.9944841,14.6227188 15.0000284,16.0366185 L15.0000284,32.3365817 C14.9989465,32.5120781 15.0622563,32.681342 15.1733276,32.8058317 C15.2843989,32.9303214 15.4343423,33 15.5920736,33 L23.4079834,33 C23.5645916,33 23.7156381,32.9302991 23.8267294,32.8058317 C23.9378206,32.6813643 24.0000284,32.5120908 24.0000284,32.3365817 L24.0000284,16.0366185 C24.0055533,14.6226869 23.2002965,13.3655862 22.0029735,12.9200105 L22.0031413,3.66341831 Z M18.0000284,6 L21.0000284,6 L21.0000284,12.99854 L18.0000284,13 L18.0000284,6 Z M21.0000284,4 L21.0000284,5 L18.0000284,5 L18.0000284,4 L21.0000284,4 Z M22.9988279,26 L16.0000284,26 L16.0000284,20 L23.0000284,20.0017011 L22.9988279,26 Z M16.0000284,32 L16.0000284,27 L23.0000284,27 L23.0000284,32 L16.0000284,32 Z M22.9997514,14.944126 L22.9997514,19 L16.0001795,19 L16.0001795,15.7331342 C15.9884566,14.7755479 16.6603785,14.1687225 17.5641948,14.0335024 C17.5899846,14.0298149 17.6568032,14.0126055 17.6825939,14.0064593 C17.7271392,14.0015424 17.7740301,13.9990841 17.8197506,14.0003132 L21.1865915,14.0003132 C21.232309,13.9990841 21.2780295,14.0015424 21.3225736,14.0064593 C21.3612597,14.019981 21.4011162,14.0285858 21.4409727,14.0335024 C22.3459594,14.1687194 23.0116097,14.7755479 22.9998757,15.7331342 L22.9997514,14.944126 Z" id="Shape" fill="#A7A7A7" fill-rule="nonzero"></path>
        <rect id="Rectangle" stroke="#A7A7A7" fill="#FFFFFF" x="22.5" y="20.5" width="6" height="10"></rect>
        <path d="M22.6937129,30.5 L23.3603796,32.5 L27.6396204,32.5 L28.3062871,30.5 L22.6937129,30.5 Z" id="Rectangle-Copy-2" stroke="#A7A7A7" fill="#FFFFFF"></path>
        <path d="M23.3603796,18.5 L22.6937129,20.5 L28.3062871,20.5 L27.6396204,18.5 L23.3603796,18.5 Z" id="Rectangle-Copy" stroke="#A7A7A7" fill="#FFFFFF"></path>
    </g>
</svg>