<?xml version="1.0" encoding="UTF-8"?>
<svg width="36px" height="36px" viewBox="0 0 36 36" version="1.1" xmlns="http://www.w3.org/2000/svg" xmlns:xlink="http://www.w3.org/1999/xlink">
    <!-- Generator: Sketch 59.1 (86144) - https://sketch.com -->
    <title>Icon / Menu / Packaging / Food</title>
    <desc>Created with Sketch.</desc>
    <g id="Icon-/-Menu-/-Packaging-/-Food" stroke="none" stroke-width="1" fill="none" fill-rule="evenodd">
        <rect id="Rectangle-Copy-4" fill="#FFFFFF" x="0" y="0" width="36" height="36" rx="4"></rect>
        <g id="Group" transform="translate(8.000000, 4.000000)" fill="#A7A7A7" fill-rule="nonzero">
            <path d="M2.33408569,13.0672066 C2.20939889,13.0672066 2.09127248,13.116425 2.00376968,13.203925 C1.91626688,13.291425 1.86705127,13.4095514 1.86705127,13.533149 L1.86705127,23.8001894 C1.86705127,24.0583158 2.07595648,24.2672294 2.33409129,24.2672294 C2.5911229,24.2672294 2.80003931,24.0583242 2.80003931,23.8001894 L2.80003931,13.533149 C2.80003931,13.4095542 2.75082091,13.2914306 2.66332091,13.203925 C2.5758209,13.1164194 2.4576945,13.0672066 2.33409689,13.0672066 L2.33408569,13.0672066 Z" id="Path"></path>
            <path d="M17.7340863,13.5331266 L17.7340863,23.800167 C17.7340863,24.0582934 17.9429915,24.267207 18.2000343,24.267207 C18.4581607,24.267207 18.6670743,24.0583018 18.6670743,23.800167 L18.6670743,13.5331266 C18.6670743,13.276095 18.4581691,13.0671786 18.2000343,13.0671786 C17.9430027,13.0671786 17.7340863,13.2760838 17.7340863,13.5331266 Z" id="Path"></path>
            <path d="M0.934085637,2.33312613 L0.934085637,8.23048637 L0.825804033,8.10033116 L0.825804033,8.10142484 C0.698930428,7.95048804 0.49221202,7.89470643 0.308448012,7.96142484 C0.123603205,8.02814324 2.67164069e-12,8.20314325 2.67164069e-12,8.40001685 L2.67164069e-12,24.0570575 C0.00109396005,24.6028335 0.191405208,25.1311095 0.540316021,25.5511095 L1.60126406,26.8242416 L1.60235802,26.8242416 C2.22250205,27.5701896 3.14235808,28.0011096 4.11250212,28.0000197 L16.4215826,28.0000197 C17.3917267,28.0011113 18.3115827,27.5701616 18.9317267,26.8242416 L19.9926748,25.5511095 C20.3426748,25.1311095 20.5329908,24.6028335 20.5340828,24.0570575 L20.5340828,8.40001685 C20.5340828,8.20314325 20.410488,8.02814884 20.2256348,7.96142484 C20.0418848,7.89470643 19.8351747,7.9504872 19.7082787,8.10142484 L19.5999971,8.23048805 L19.5999971,6.53298798 C19.5978098,5.16798793 18.6123531,4.00425188 17.267037,3.77563187 L17.267037,2.79999983 C17.7821811,2.79890615 18.1999971,2.38218381 18.1999971,1.86703979 L18.1999971,0.932987757 C18.1999971,0.417843737 17.7821811,0.00111972004 17.267037,7.10542736e-15 L14.4670369,7.10542736e-15 C13.9518929,0.00112145604 13.5340769,0.417843737 13.5340769,0.932987757 L13.5340769,1.86703979 C13.5340769,2.38218381 13.9518929,2.79890783 14.4670369,2.79999983 L14.4670369,3.77563187 C13.2464049,3.98344508 12.3079848,4.96672392 12.1559448,6.19499997 C11.8442208,6.11078156 11.5237608,6.06812636 11.1999968,6.06703156 C10.5448528,6.06921892 9.90062875,6.24312637 9.33404873,6.57234758 L9.33404873,4.19999149 C9.33186109,2.91154344 8.28841669,1.86812339 7,1.86703139 C6.49358862,1.86812507 6.0024966,2.036563 5.59999658,2.34499141 L5.59999658,2.33296009 C5.59999658,1.04451204 4.55545654,7.10542736e-15 3.26703649,7.10542736e-15 C1.97861644,7.10542736e-15 0.934076397,1.04454004 0.934076397,2.33296009 L0.934085637,2.33312613 Z M19.6000291,24.057207 C19.6000291,24.385339 19.4851616,24.702523 19.2762704,24.954075 L18.2153223,26.2272071 L18.2142284,26.2272071 C17.7712683,26.7598511 17.1150043,27.0682991 16.4215843,27.06721 L4.1125038,27.06721 C3.41905578,27.0683008 2.76281975,26.7598511 2.31985973,26.2272071 L1.25891169,24.954075 L1.25781801,24.954075 C1.0489128,24.7025118 0.934081997,24.385339 0.934081997,24.057207 L0.934081997,9.68760642 L2.06503004,11.0416585 L2.06393636,11.0416585 C2.08253004,11.0591585 2.10330996,11.0755637 2.12409156,11.0897849 C2.14268525,11.1094722 2.16237317,11.1280665 2.18424677,11.1444717 C2.18862205,11.1466593 2.19299677,11.1466593 2.19737205,11.1488467 C2.22799565,11.1641593 2.26080885,11.1750967 2.29471685,11.1827519 C2.31877921,11.1925956 2.34393525,11.1991582 2.36909045,11.2046269 C2.40190366,11.2057206 2.43362206,11.2046269 2.46643526,11.1991582 C2.49268526,11.1991582 2.51893526,11.1958769 2.54628006,11.1904082 C2.57253006,11.1816582 2.59878006,11.1685332 2.62393526,11.1543134 C2.65346687,11.1422821 2.68190367,11.1269694 2.70924847,11.1083766 C2.71362375,11.1050953 2.71799847,11.1050953 2.72237375,11.1018142 L2.72127979,11.1007203 C2.73987375,11.0821266 2.75518499,11.0624387 2.77049819,11.0405651 C2.79018583,11.0230651 2.80768499,11.0033783 2.82409299,10.9815019 L2.9662798,10.7419703 C3.0329982,10.6413439 3.1456534,10.5800967 3.26705581,10.5800967 C3.38845821,10.5800967 3.50111902,10.6413467 3.56783182,10.7419703 C3.74501863,11.0405623 4.03596384,11.2538383 4.37392385,11.3315103 C4.71188387,11.4091823 5.06737188,11.3446353 5.35719989,11.1543235 C5.40094989,11.1313545 5.4403263,11.1018235 5.4742315,11.0657287 C5.5890763,10.9749471 5.68751311,10.8655735 5.76627151,10.7419927 C5.83298991,10.6413663 5.94564512,10.5801191 6.06704752,10.5801191 C6.18844993,10.5801191 6.30111073,10.6413691 6.36782353,10.7419927 C6.59969714,11.1280847 7.01750756,11.3632567 7.46704758,11.3632567 C7.91658759,11.3632567 8.33440361,11.1281015 8.56627162,10.7419927 C8.63299002,10.6413663 8.74564523,10.5801191 8.86704763,10.5801191 C8.98845004,10.5801191 9.10111084,10.6413691 9.16782364,10.7419927 C9.39969725,11.1280847 9.81750767,11.3632567 10.2670477,11.3632567 C10.7165877,11.3632567 11.1344037,11.1281015 11.3662717,10.7419927 C11.4329901,10.6413663 11.5456453,10.5801191 11.6670477,10.5801191 C11.7884501,10.5801191 11.901111,10.6413691 11.9678238,10.7419927 C12.1996974,11.1280847 12.6175078,11.3632567 13.0670478,11.3632567 C13.5165878,11.3632567 13.9344038,11.1281015 14.1662718,10.7419927 C14.2329902,10.6413663 14.3456455,10.5801191 14.4670479,10.5801191 C14.5884503,10.5801191 14.7011111,10.6413691 14.7678239,10.7419927 C15.0007923,11.1280847 15.4175079,11.3643487 15.8681399,11.3632567 C16.3176799,11.3632567 16.7354959,11.1270067 16.966272,10.7409007 C17.0297088,10.6359007 17.1434588,10.5724639 17.265956,10.5713691 C17.388456,10.5713691 17.502206,10.6348059 17.56564,10.7387139 L17.7100136,10.9815271 C17.7472004,11.0198087 17.7811084,11.0591823 17.8128268,11.1007455 C17.8172018,11.1040268 17.8215768,11.1051205 17.8259518,11.1073081 L17.8248581,11.1084018 C17.8522018,11.1269955 17.8806397,11.142307 17.9101713,11.1543386 C17.9561081,11.1871518 18.0118897,11.2024622 18.0676713,11.1991834 C18.1256397,11.2134021 18.1857977,11.2079334 18.2393897,11.1827771 C18.2732949,11.1751208 18.3061081,11.1641834 18.3367345,11.1488719 C18.3411098,11.1466845 18.3454845,11.1466845 18.3498598,11.1444969 C18.3881414,11.1073101 18.427515,11.0734021 18.470173,11.0416837 L19.6000291,9.68760642 L19.6000291,24.057207 Z M14.4670462,0.933126077 L17.2670463,0.934220037 L17.2670463,1.86718007 L14.4670462,1.86718007 L14.4670462,0.933126077 Z M16.3340862,2.80016615 L16.3340862,3.73312619 L15.4000342,3.73312619 L15.4000342,2.80016615 L16.3340862,2.80016615 Z M14.9340862,4.66718943 L16.8011263,4.66718943 L16.8000323,4.66718943 C17.8303483,4.66829991 18.6659804,5.50283826 18.6670724,6.5331543 L18.6670724,9.34855441 L18.1387964,9.98183044 C17.8566123,9.71933043 17.4705203,9.59683042 17.0877043,9.65042242 C16.7048883,9.70401443 16.3680203,9.92714083 16.1678483,10.2585544 C16.1011299,10.3591809 15.9884747,10.4204281 15.8670723,10.4204281 C15.7456699,10.4204281 15.6330091,10.3591781 15.5662963,10.2585544 C15.4175463,10.017928 15.1933362,9.83309443 14.9286522,9.73355443 C14.9122459,8.42542237 14.2035082,7.22450233 13.0671002,6.5790743 L13.0671002,6.5331375 C13.0681938,5.50282146 13.9038242,4.66828143 14.9341402,4.66718943 L14.9340862,4.66718943 Z M12.4020461,7.27361433 L12.4009524,7.27252065 C13.3601765,7.72096867 13.9792285,8.6779807 13.9956365,9.73674475 C13.7353233,9.83736835 13.5143725,10.0200208 13.3678205,10.2584688 C13.301102,10.3590952 13.1884468,10.4203424 13.0670444,10.4203424 C12.945642,10.4203424 12.8329812,10.3590924 12.7662684,10.2584688 C12.5343948,9.87237675 12.1165844,9.63720474 11.6670444,9.63720474 C11.2175044,9.63720474 10.7996883,9.87235995 10.5678203,10.2584688 C10.5011019,10.3590952 10.3884467,10.4203424 10.2670443,10.4203424 C10.1456419,10.4203424 10.0329811,10.3590924 9.96626832,10.2584688 C9.6512683,9.71596875 8.98190028,9.49174474 8.40330825,9.73346875 C8.41752693,9.02473272 8.70408427,8.34769269 9.20175629,7.84237667 C10.0439403,7.00128464 11.3203484,6.77378463 12.4010364,7.27252065 L12.4020461,7.27361433 Z M7.00000588,2.80005415 C7.77328191,2.80114783 8.40000593,3.42677818 8.40000593,4.20005421 L8.40000593,7.34025433 C7.6518739,8.17370236 7.32813789,9.30353041 7.5217299,10.4070945 C7.38391669,10.4344381 7.24282469,10.3753761 7.16626988,10.2583444 C6.85017787,9.71475243 6.17971785,9.49052842 5.60000582,9.73443643 L5.60000582,4.19995621 C5.60109978,3.42668018 6.22782185,2.80104815 7.00000588,2.79995615 L7.00000588,2.80005415 Z M3.26704573,0.932952477 C4.04032176,0.934108037 4.66595379,1.5608301 4.66704579,2.33301413 L4.66704579,10.4203111 C4.54564058,10.4224418 4.43079578,10.3611913 4.36626977,10.2583808 C4.16720657,9.92697283 3.82922975,9.70274883 3.44641374,9.64915682 C3.06359772,9.59556202 2.67750571,9.71806203 2.3953217,9.98274884 L1.86704567,9.34947281 L1.86704567,2.33295253 C1.86813935,1.5607685 2.4937697,0.934044477 3.26704573,0.932952477 L3.26704573,0.932952477 Z" id="Shape"></path>
            <path d="M2.80000571,4.66720623 C2.92469252,4.66720623 3.04281892,4.61798782 3.13032172,4.53048782 L3.59736174,4.0634478 C3.77673535,3.88079259 3.77454855,3.58767178 3.59408042,3.40609178 C3.41251722,3.22562337 3.1193964,3.22452857 2.9367244,3.40390442 L2.46968438,3.87094443 L2.47077806,3.86985047 C2.33734125,4.00328728 2.29687285,4.20453449 2.36905965,4.37844249 C2.44124646,4.5534425 2.61187286,4.66717851 2.80000767,4.66717851 L2.80000571,4.66720623 Z" id="Path"></path>
            <path d="M2.80000571,6.5331263 C2.92469252,6.5331263 3.04281892,6.4839079 3.13032172,6.39640789 L3.59736174,5.92936788 L3.59736174,5.93046184 C3.77673535,5.74780663 3.77454855,5.45468582 3.59408042,5.27310581 C3.41251722,5.0926374 3.1193964,5.0904506 2.9367244,5.26982449 L2.46968438,5.73686451 L2.47077806,5.73686451 C2.33734125,5.87030131 2.29687285,6.07154852 2.36905965,6.24545653 C2.44124646,6.41936174 2.61187286,6.53310054 2.80000767,6.53310054 L2.80000571,6.5331263 Z" id="Path"></path>
            <path d="M2.80000571,8.40016637 C2.92469252,8.40016637 3.04281892,8.35094797 3.13032172,8.26344797 L3.59736174,7.79640795 C3.77673535,7.61375274 3.77454855,7.32063193 3.59408042,7.14014392 C3.41251722,6.95858072 3.1193964,6.95748872 2.9367244,7.1368626 L2.46968438,7.60390262 L2.47077806,7.60390262 C2.33734125,7.73733943 2.29687285,7.93749464 2.36905965,8.11249464 C2.44124646,8.28639985 2.61187286,8.40013865 2.80000767,8.40013865 L2.80000571,8.40016637 Z" id="Path"></path>
            <path d="M6.53408586,6.5331263 C6.65768066,6.5331263 6.77580427,6.4839079 6.86330987,6.39640789 L7.33034989,5.92936788 L7.33034989,5.93046184 C7.5097235,5.74780663 7.5086315,5.45468582 7.32706857,5.27310581 C7.14660016,5.0926374 6.85347655,5.0904506 6.67080455,5.26982449 L6.20376453,5.73686451 C6.07032772,5.87030131 6.03095132,6.07154852 6.10313812,6.24545653 C6.17532493,6.41936174 6.34485653,6.53310054 6.53408614,6.53310054 L6.53408586,6.5331263 Z" id="Path"></path>
            <path d="M6.53408586,8.40016637 C6.65768066,8.40016637 6.77580427,8.35094797 6.86330987,8.26344797 L7.33034989,7.79640795 C7.5097235,7.61375274 7.5086315,7.32063193 7.32706857,7.14014392 C7.14660016,6.95858072 6.85347655,6.95748872 6.67080455,7.1368626 L6.20376453,7.60390262 C6.07032772,7.73733943 6.03095132,7.93749464 6.10313812,8.11249464 C6.17532493,8.28639985 6.34485653,8.40013865 6.53408614,8.40013865 L6.53408586,8.40016637 Z" id="Path"></path>
        </g>
    </g>
</svg>