<?xml version="1.0" encoding="UTF-8"?>
<svg width="36px" height="36px" viewBox="0 0 36 36" version="1.1" xmlns="http://www.w3.org/2000/svg" xmlns:xlink="http://www.w3.org/1999/xlink">
    <title>Icon / Menu / Social / Other</title>
    <g id="Icon-/-Menu-/-Social-/-Other" stroke="none" stroke-width="1" fill="none" fill-rule="evenodd">
        <rect id="Rectangle-Copy-5" fill="#FFFFFF" x="0" y="0" width="36" height="36" rx="4"></rect>
        <path d="M18,9 C13.05,9 9,13.05 9,18 C9,21.825 11.4,25.05 14.7,26.4 C14.625,25.725 14.55,24.6 14.7,23.85 C14.85,23.175 15.75,19.35 15.75,19.35 C15.75,19.35 15.525,18.75 15.525,18 C15.525,16.725 16.275,15.825 17.175,15.825 C17.925,15.825 18.3,16.425 18.3,17.1 C18.3,17.85 17.775,19.05 17.55,20.1 C17.325,21 18,21.75 18.9,21.75 C20.475,21.75 21.75,20.1 21.75,17.625 C21.75,15.45 20.175,13.95 18,13.95 C15.45,13.95 13.95,15.9 13.95,17.85 C13.95,18.6 14.25,19.425 14.625,19.875 C14.7,19.95 14.7,20.025 14.7,20.1 C14.625,20.4 14.475,21 14.475,21.15 C14.4,21.3 14.325,21.375 14.175,21.3 C13.05,20.775 12.375,19.125 12.375,17.85 C12.375,15 14.475,12.375 18.3,12.375 C21.45,12.375 23.85,14.625 23.85,17.55 C23.85,20.625 21.9,23.175 19.2,23.175 C18.3,23.175 17.4,22.725 17.1,22.125 C17.1,22.125 16.65,23.85 16.575,24.3 C16.35,25.05 15.825,26.025 15.45,26.625 C16.2,26.85 17.1,27 18,27 C22.95,27 27,22.95 27,18 C27,13.05 22.95,9 18,9 Z" id="Path" fill="#A7A7A7"></path>
    </g>
</svg>