<svg xmlns="http://www.w3.org/2000/svg" width="36" height="36"  fill-rule="evenodd" xmlns:v="https://vecta.io/nano"><rect fill="#fff" width="36" height="36" rx="4"/><path d="M27.896 17.227c-.24-.139-.548-.05-.69.196l-6.189 10.72c-1.841.323-3.668.319-5.372-.002 1.479-.018 3.033-.269 4.608-.746.127-.036.234-.124.302-.242l7.798-13.507c.143-.247.063-.558-.176-.696s-.548-.05-.69.196l-7.696 13.33c-2.319.676-4.575.822-6.577.434 1.786-.042 3.701-.466 5.726-1.271.108-.041.202-.126.26-.226l9.242-16.01c.11-.19.094-.425-.043-.585s-.361-.22-.56-.138c-2.883 1.146-5.62 1.477-7.909.964a8.52 8.52 0 0 1-4.476-2.584.5.5 0 0 0-.423-.152c-.157.019-.298.117-.38.26L5.41 23.172l-.01.017-.01.017c-.005.008-.007.013-.009.024-.007.013-.013.033-.017.048-.005.008-.003.015-.009.024-.009.034-.008.053-.014.072-.001.011-.003.015-.004.027l.004.089.002.007c.002.007.001.017.003.024.005.02.006.039.011.058l.003.013c.002.007.007.016.009.022l.023.048c.002.007.003.013.012.018.015.031.03.045.041.064.002.007.006.009.012.018s.01.011.012.018l.336.361c.832.861 3.703 2.952 7.933 4.58 2.308.888 5.001.896 7.662.388.147-.03.278-.123.353-.252l6.317-10.932c.143-.247.066-.562-.173-.7h0zm-12.712-8.98c1.267 1.205 2.782 2.01 4.504 2.399 2.17.485 4.586.304 7.207-.544l-8.461 14.655c-2.822 1.09-5.494 1.405-7.743.899-1.623-.365-3.041-1.144-4.214-2.318l8.708-15.09z" fill="#a7a7a7"/></svg>