<?xml version="1.0" encoding="UTF-8"?>
<svg width="36px" height="36px" viewBox="0 0 36 36" version="1.1" xmlns="http://www.w3.org/2000/svg" xmlns:xlink="http://www.w3.org/1999/xlink">
    <!-- Generator: Sketch 59.1 (86144) - https://sketch.com -->
    <title>Icon / Menu / Apparel / Accessories II</title>
    <desc>Created with Sketch.</desc>
    <g id="Icon-/-Menu-/-Apparel-/-Accessories-II" stroke="none" stroke-width="1" fill="none" fill-rule="evenodd">
        <rect id="Rectangle-Copy-3" fill="#FFFFFF" x="0" y="0" width="36" height="36" rx="4"></rect>
        <path d="M15.3308891,5 L20.6679942,5.00107184 C20.9823195,5.00107184 21.0292588,5.38042604 22.880286,7.37151435 C22.9959745,7.50440354 23.0603679,7.67478921 23.0603679,7.85053544 L23.0603679,7.85053544 L23.0603679,13.1005364 L27.24802,13.1005364 C27.6616722,13.1005364 27.9989084,13.431662 27.9989084,13.837819 L27.9989084,13.837819 L28,28.9724824 C28,29.0539278 27.9672599,29.1321552 27.9083232,29.190024 L27.9083232,29.190024 L26.1566228,30.9099843 C26.0976861,30.9678504 26.0180151,31 25.9350667,31 L25.9350667,31 L10.0648486,31 C9.98190025,31 9.90222925,30.9678531 9.84329254,30.9099843 L9.84329254,30.9099843 L8.09167684,29.1911468 C8.03274292,29.133278 8,29.0550506 8,28.9736053 L8,28.9736053 L8,13.8378445 C8,13.4316875 8.3372362,13.1005619 8.75088838,13.1005619 L8.75088838,13.1005619 L12.9374229,13.1005619 L12.9374229,7.8494636 C12.9374229,7.67479278 13.0018163,7.50439613 13.1185973,7.37044251 C14.7939096,5.5690313 14.9991012,5 15.3308891,5 L15.3308891,5 Z M12.9382715,13.7144274 L8.75061932,13.7144274 C8.67967678,13.7144274 8.62510711,13.769081 8.62510711,13.8376654 L8.62510711,13.8376654 L8.62510711,28.8458574 L10.1935228,30.3857973 L25.802781,30.3868689 L27.3711389,28.846929 L27.3711389,13.8387353 C27.3711389,13.7690782 27.3154767,13.7154973 27.2456267,13.7154973 L27.2456267,13.7154973 L23.0579745,13.7154973 L23.0579745,14.7667595 C23.0579745,14.8589205 23.0165003,14.9457209 22.9444681,15.0035897 C22.8747695,15.0602807 21.9451604,15.8138828 21.9054342,15.8458888 L21.9054342,15.8458888 C21.8464983,15.8930398 21.7766482,15.9166158 21.7057057,15.9166158 C21.6358556,15.9166158 21.5649131,15.8930393 21.5070688,15.8458888 C21.573622,15.9005369 20.5084194,15.036812 20.4658556,15.0025198 C20.3938234,14.944651 20.3523492,14.8578506 20.3523492,14.7656895 L20.3523492,14.7656895 L20.3523492,13.7144274 L15.6438948,13.7144274 L15.6438948,14.7656895 C15.6438948,14.8567779 15.6024207,14.944651 15.5303885,15.0025198 C15.5980592,14.9478717 14.531739,15.8115966 14.4891752,15.8458888 C14.4313309,15.8930398 14.3614809,15.9166158 14.2905383,15.9166158 C14.2206882,15.9166158 14.1497457,15.8930393 14.0919014,15.8458888 L14.0919014,15.8458888 L13.0517778,15.0025198 C12.9797456,14.9435811 12.9382715,14.8567779 12.9382715,14.7656895 L12.9382715,14.7656895 L12.9382715,13.7144274 Z M20.9809703,6.13701381 L20.9799944,13.3509969 C21.0356756,13.3309524 21.0956035,13.32 21.1578947,13.32 C21.4534069,13.32 21.6842105,13.5549553 21.6842105,13.84 C21.6842105,14.131966 21.4533979,14.36 21.1578947,14.36 C21.0959591,14.36 21.0362259,14.3492817 20.980633,14.3295511 L20.9809703,14.6222795 C20.934059,14.5847501 21.6652944,15.1773744 21.7078582,15.2116667 L21.7078582,15.2116667 L22.4336564,14.6222795 C22.4349437,9.14920329 22.4350922,8.01711939 22.4349974,7.8674141 L22.4347377,7.85054641 C22.4347377,7.82053935 22.4249148,7.79267789 22.4052694,7.77017369 L22.4052694,7.77017369 L20.9809703,6.13701381 Z M15.0174234,6.13697814 L13.5931143,7.77007959 C13.5734685,7.79258352 13.5636459,7.82044525 13.5636459,7.85045231 L13.5636459,7.85045231 L13.5628004,13.3713733 C13.631617,13.338484 13.708551,13.32 13.7894737,13.32 C14.0849858,13.32 14.3157895,13.5549553 14.3157895,13.84 C14.3157895,14.131966 14.0849769,14.36 13.7894737,14.36 C13.7089395,14.36 13.6323568,14.3420973 13.5637945,14.3099742 L13.5647373,14.6211465 L14.2905355,15.2105336 C14.2436242,15.248063 14.9748596,14.6554387 15.0174234,14.6211465 L15.0174234,14.6211465 L15.0174234,6.13697814 Z M20.3554505,7.65656221 L15.6439228,7.65656221 L15.6439228,13.1005199 L20.3554505,13.1005199 L20.3554505,7.65656221 Z M20.3554505,5.61403558 L15.6439228,5.61403558 L15.6439228,7.04251209 L20.3554505,7.04251209 L20.3554505,5.61403558 Z" id="Combined-Shape" stroke="#A7A7A7" stroke-width="0.52" fill="#A7A7A7"></path>
    </g>
</svg>