<?xml version="1.0" encoding="UTF-8"?>
<svg width="36px" height="36px" viewBox="0 0 36 36" version="1.1" xmlns="http://www.w3.org/2000/svg" xmlns:xlink="http://www.w3.org/1999/xlink">
    <!-- Generator: Sketch 59.1 (86144) - https://sketch.com -->
    <title>Icon / Menu / Tech / Accessories</title>
    <desc>Created with Sketch.</desc>
    <g id="Icon-/-Menu-/-Tech-/-Accessories" stroke="none" stroke-width="1" fill="none" fill-rule="evenodd">
        <rect id="Rectangle-Copy-7" fill="#FFFFFF" x="0" y="0" width="36" height="36" rx="4"></rect>
        <g id="Group-2" transform="translate(8.000000, 4.000000)">
            <path d="M17.8181818,3 L10.1818182,3 C8.98225455,3 8,4.05412683 8,5.34146341 L8,24.6585366 C8,25.9458732 8.98225455,27 10.1818182,27 L17.8181818,27 C19.0177455,27 20,25.9458732 20,24.6585366 L20,5.34146341 C20,4.05412683 19.0177455,3 17.8181818,3 Z" id="Shape" stroke="#A7A7A7" stroke-width="1.2"></path>
            <path d="M11,6.86209183 L11,9.17222207 C11,9.65444176 11.4027891,10.0343139 11.9141002,10.0343139 C12.4254113,10.0343139 12.8282004,9.65444176 12.8282004,9.17222207 L12.8282004,6.86209183 C12.8282004,6.37987215 12.4254113,6 11.9141002,6 C11.4027891,6 11,6.41352821 11,6.86209183 L11,6.86209183 Z" id="Path" fill="#A7A7A7"></path>
            <path d="M12,-4.61852778e-14 L2.25,-4.61852778e-14 C1.01295,-4.61852778e-14 0,1.08048 0,2.4 L0,24.6 C0,25.91952 1.01295,27 2.25,27 L6,27" id="Shape" stroke="#A7A7A7" stroke-width="1.2"></path>
            <path d="M3,3.86209183 L3,6.17222207 C3,6.65444176 3.4027891,7.03431391 3.91410018,7.03431391 C4.42541125,7.03431391 4.82820036,6.65444176 4.82820036,6.17222207 L4.82820036,3.86209183 C4.82820036,3.37987215 4.42541125,3 3.91410018,3 C3.4027891,3 3,3.41352821 3,3.86209183 L3,3.86209183 Z" id="Path" fill="#A7A7A7"></path>
        </g>
    </g>
</svg>