<?xml version="1.0" encoding="UTF-8"?>
<svg width="36px" height="36px" viewBox="0 0 36 36" version="1.1" xmlns="http://www.w3.org/2000/svg" xmlns:xlink="http://www.w3.org/1999/xlink">
    <!-- Generator: Sketch 59.1 (86144) - https://sketch.com -->
    <title>Icon / Menu / Packaging / Bags</title>
    <desc>Created with Sketch.</desc>
    <g id="Icon-/-Menu-/-Packaging-/-Bags" stroke="none" stroke-width="1" fill="none" fill-rule="evenodd">
        <rect id="Rectangle-Copy-3" fill="#FFFFFF" x="0" y="0" width="36" height="36" rx="4"></rect>
        <path d="M15.3663486,5 C12.94418,5 10.9769306,7.03244394 10.9769306,9.53488317 L10.9769306,11.651162 L8.05065197,11.651162 C7.73288737,11.6582479 7.49512723,11.9440398 7.46539624,12.199127 L6.00225692,30.3386597 C5.97139345,30.6740597 6.2617359,31.0011759 6.58751265,31 L24.1451846,31 C24.4709672,31 24.7613125,30.6740597 24.7304403,30.3386597 L24.6847172,29.7906946 L7.22770926,29.7906946 L8.59024313,12.8604642 L10.9769745,12.8604642 L10.9769745,14.7783569 C10.2979901,15.0299009 9.80646306,15.705408 9.80646306,16.4883707 C9.80646306,17.4827496 10.5997479,18.302324 11.5622303,18.302324 C12.5247126,18.302324 13.3179974,17.4827496 13.3179974,16.4883707 C13.3179974,15.705408 12.8264704,15.0298918 12.147486,14.7783569 L12.147486,12.8604642 L18.585299,12.8604642 L18.585299,14.0697663 L19.7558105,14.0697663 L19.7558105,12.8604642 L22.1425419,12.8604642 L22.2431327,14.0697663 L23.4136442,14.0697663 L23.2673302,12.199127 C23.2398964,11.9015238 22.9712786,11.6499829 22.6820745,11.651162 L19.7557958,11.651162 L19.7557958,9.53488317 C19.7557958,7.03244394 17.7885465,5 15.3663779,5 L15.3663486,5 Z M15.3663486,6.20930218 C17.1598355,6.20930218 18.5852551,7.68196014 18.5852551,9.53488317 L18.5852551,11.651162 L12.1474421,11.651162 L12.1474421,9.53488317 C12.1474421,7.68196014 13.5728617,6.20930218 15.3663486,6.20930218 Z M17.1221158,15.2222313 L15.9516043,28.5245553 C15.9207409,28.8599552 16.2110833,29.1870715 16.5368601,29.1858956 L29.4124861,29.1858956 C29.7382687,29.1858956 30.0286141,28.8599552 29.9977419,28.5245553 L28.8272304,15.2222313 C28.7997966,14.9246281 28.5311788,14.6730872 28.2419747,14.6742621 L17.7073715,14.6742621 C17.4021607,14.6742621 17.1518468,14.9671441 17.1221158,15.2222313 Z M11.5621864,15.8835684 C11.892534,15.8835684 12.1474421,16.1469212 12.1474421,16.4882195 C12.1474421,16.8295179 11.8925369,17.0928706 11.5621864,17.0928706 C11.2318358,17.0928706 10.9769306,16.8295179 10.9769306,16.4882195 C10.9769306,16.1469212 11.2318358,15.8835684 11.5621864,15.8835684 Z M18.2469773,15.8835684 L27.7023689,15.8835684 L28.7722749,27.9765902 L17.1768957,27.9765902 L18.2469773,15.8835684 Z M20.048453,16.4882195 C19.7249529,16.4882195 19.4631972,16.7586588 19.4631972,17.0928706 L19.4631972,18.3021728 C19.4631972,20.3015423 21.0394958,21.9300793 22.9747316,21.9300793 C24.9099675,21.9300793 26.486266,20.3015423 26.486266,18.3021728 L26.486266,17.0928706 C26.486266,16.7586497 26.2245016,16.4882195 25.9010103,16.4882195 C25.577519,16.4882195 25.3157546,16.7586588 25.3157546,17.0928706 L25.3157546,18.3021728 C25.3157546,19.6519959 24.2812565,20.7207771 22.9747316,20.7207771 C21.6682067,20.7207771 20.6337087,19.6519959 20.6337087,18.3021728 L20.6337087,17.0928706 C20.6337087,16.7586497 20.3719443,16.4882195 20.048453,16.4882195 L20.048453,16.4882195 Z" id="Shape" fill="#A7A7A7"></path>
    </g>
</svg>