<?xml version="1.0" encoding="UTF-8"?>
<svg width="36px" height="36px" viewBox="0 0 36 36" version="1.1" xmlns="http://www.w3.org/2000/svg" xmlns:xlink="http://www.w3.org/1999/xlink">
    <!-- Generator: Sketch 59.1 (86144) - https://sketch.com -->
    <title>Icon / Menu / Print / Branding</title>
    <desc>Created with Sketch.</desc>
    <g id="Icon-/-Menu-/-Print-/-Branding" stroke="none" stroke-width="1" fill="none" fill-rule="evenodd">
        <rect id="Rectangle" fill="#FFFFFF" x="0" y="0" width="36" height="36" rx="4"></rect>
        <g id="np_branding_2663158_000000" transform="translate(5.000000, 5.000000)" fill="#A7A7A7">
            <path d="M10.6919091,24.0797168 L2.84404545,24.0797168 C2.58898545,24.0797168 2.38239773,23.8729577 2.38239773,23.6178977 L2.38239773,13.4616477 C2.38239773,13.2065877 2.58898545,13 2.84404545,13 L9.30711364,13 L9.30711364,7.46022727 L2.84404545,7.46022727 C2.58898545,7.46022727 2.38239773,7.25363955 2.38239773,6.99857955 L2.38239773,0.535511364 C2.38239773,0.280451364 2.58898545,0.0738434912 2.84404545,0.0738434912 L15.7701818,0.0738434912 C15.8925177,0.0727095909 16.0113939,0.121183636 16.0979591,0.20774 L19.7911409,3.90092182 C19.8777002,3.98748114 19.9261725,4.10635432 19.9250375,4.22869909 L19.9250375,16.23154 C19.9250375,16.3538759 19.876545,16.4715968 19.7899857,16.558165 C19.7034264,16.6447332 19.5857055,16.6931966 19.4633607,16.6931966 L11.1537016,16.6931966 L11.1537016,23.6180602 C11.1537016,23.7403961 11.1052293,23.858117 11.01867,23.9446852 C10.9321107,24.0312534 10.8143898,24.0797168 10.692045,24.0797168 L10.6919091,24.0797168 Z M3.30554545,23.15625 L10.2304091,23.15625 L10.2304091,16.2313864 C10.2304091,15.9763264 10.4369968,15.7697386 10.6920568,15.7697386 L19.0017159,15.7697386 L19.0017159,4.41778409 L15.5809432,0.997011364 L3.30554545,0.997011364 L3.30554545,6.53678409 L9.76876136,6.53678409 C9.89109727,6.53678409 10.0088182,6.58525636 10.0953864,6.67181568 C10.1819545,6.758375 10.230418,6.87609591 10.230418,6.99844068 L10.230418,13.4615089 C10.230418,13.5838448 10.1819457,13.7015657 10.0953864,13.7881339 C10.008827,13.874702 9.89110614,13.9231655 9.76876136,13.9231655 L3.30554545,13.9231655 L3.30554545,23.15625 Z" id="Shape"></path>
            <path d="M25.4646364,25.9261541 L10.6919091,25.9261541 C10.4368491,25.9261541 10.2302614,25.7195486 10.2302614,25.4644886 L10.2302614,16.2315341 C10.2302614,15.9764741 10.4368491,15.7698864 10.6919091,15.7698864 L25.4646364,15.7698864 C25.5869723,15.7698864 25.7046932,15.8183586 25.7912614,15.904918 C25.8778295,15.9914773 25.926293,16.1091982 25.926293,16.231543 L25.926293,25.4644975 C25.926293,25.5868334 25.8778207,25.7045543 25.7912614,25.7911225 C25.704702,25.8776907 25.5869811,25.9261541 25.4646364,25.9261541 L25.4646364,25.9261541 Z M11.1534091,25.0028409 L25.0028409,25.0028409 L25.0028409,16.6931818 L11.1534091,16.6931818 L11.1534091,25.0028409 Z" id="Shape"></path>
            <path d="M9.76831818,13.9233132 L0.535363636,13.9233132 C0.280303636,13.9233132 0.0737159091,13.7167077 0.0737159091,13.4616477 L0.0737159091,6.99857955 C0.0737159091,6.74351955 0.280303636,6.53693182 0.535363636,6.53693182 L9.76831818,6.53693182 C9.89065409,6.53693182 10.008375,6.58540409 10.0949432,6.67196341 C10.1815114,6.75852273 10.2299748,6.87624364 10.2299748,6.99858841 L10.2299748,13.4616566 C10.2299748,13.5839925 10.1815025,13.7017134 10.0949432,13.7882816 C10.0083839,13.8748498 9.89066295,13.9233132 9.76831818,13.9233132 L9.76831818,13.9233132 Z M0.996863636,13 L9.30652273,13 L9.30652273,7.46022727 L0.996863636,7.46022727 L0.996863636,13 Z" id="Shape"></path>
            <path d="M23.5808182,15.3080909 C23.4365536,15.3057828 23.301522,15.2353825 23.2161091,15.1188168 L21.8680977,13.2722259 C21.8069298,13.1937473 21.7734607,13.0991073 21.7711532,12.9998523 L21.7711532,3.30539773 C21.7711532,2.79526591 22.1843168,2.38210227 22.6944486,2.38210227 L24.5410395,2.38210227 C24.7857114,2.38210227 25.0211532,2.47904682 25.19426,2.65216545 C25.3673786,2.82528409 25.4643232,3.06072 25.4643232,3.30538591 L25.4643232,12.9998405 C25.4643232,13.101403 25.4296989,13.200658 25.3673786,13.2814441 L23.9455036,15.128035 C23.8577891,15.241138 23.7239127,15.3080909 23.5807945,15.3080909 L23.5808182,15.3080909 Z M22.6944545,12.8475159 L23.5900364,14.0754841 L24.5410455,12.8428773 L24.5410455,3.30530909 L22.6944545,3.30530909 L22.6944545,12.8475159 Z" id="Shape"></path>
            <path d="M24.5410455,3.30555432 L22.6944545,3.30555432 C22.4393945,3.30555432 22.2328068,3.09895773 22.2328068,2.84389773 L22.2328068,1.45895455 C22.2328068,0.693786364 22.8525818,0.0740113636 23.61775,0.0740113636 C24.3829182,0.0740113636 25.0026932,0.693786364 25.0026932,1.45895455 L25.0026932,2.84389773 C25.0026932,2.96623364 24.9542209,3.08395455 24.8676616,3.17052273 C24.7811023,3.25709091 24.6633814,3.30555432 24.5410366,3.30555432 L24.5410455,3.30555432 Z M23.1561023,2.38225 L24.0793977,2.38225 L24.0793977,1.45895455 C24.0793977,1.20389455 23.87281,0.997306818 23.61775,0.997306818 C23.36269,0.997306818 23.1561023,1.20389455 23.1561023,1.45895455 L23.1561023,2.38225 Z" id="Shape"></path>
            <path d="M19.4630682,4.69034091 L15.7698864,4.69034091 C15.5148264,4.69034091 15.3082386,4.48375318 15.3082386,4.22869318 L15.3082386,0.535511364 C15.3093927,0.349697045 15.4224968,0.181202273 15.5944602,0.110795455 C15.7664236,0.0380870455 15.9649307,0.0773263636 16.0976489,0.20774 L19.7908307,3.90092182 C19.9212473,4.03364591 19.9604866,4.23215591 19.8877752,4.40411045 C19.8173743,4.57607386 19.6488736,4.68917682 19.4630593,4.69034091 L19.4630682,4.69034091 Z M16.2313864,3.76704545 L18.3503568,3.76704545 L16.2313864,1.648075 L16.2313864,3.76704545 Z" id="Shape"></path>
            <path d="M18.0782727,20.3863636 C18.0055643,20.3863636 17.9351605,20.3690518 17.8705327,20.3355809 L10.4841691,16.6423991 C10.2764291,16.5177527 10.2014102,16.254615 10.3098982,16.0387855 C10.4195384,15.8229648 10.6769118,15.7271695 10.899655,15.8206573 L18.0783141,19.4077709 L25.2569732,15.8206573 C25.3666134,15.7548714 25.4993375,15.7375607 25.6228345,15.772185 C25.7463257,15.8079616 25.8490405,15.8933686 25.9067486,16.0076268 C25.9644539,16.121885 25.9725345,16.2557614 25.9275226,16.3757927 C25.8836654,16.4969764 25.7913358,16.5927686 25.6724626,16.6423932 L18.286099,20.335575 C18.2214683,20.3690441 18.1510674,20.3863636 18.078359,20.3863636 L18.0782727,20.3863636 Z" id="Path"></path>
        </g>
    </g>
</svg>