<?xml version="1.0" encoding="UTF-8"?>
<svg width="36px" height="36px" viewBox="0 0 36 36" version="1.1" xmlns="http://www.w3.org/2000/svg" xmlns:xlink="http://www.w3.org/1999/xlink">
    <!-- Generator: Sketch 59.1 (86144) - https://sketch.com -->
    <title>Icon / Menu / Print / Business</title>
    <desc>Created with Sketch.</desc>
    <g id="Icon-/-Menu-/-Print-/-Business" stroke="none" stroke-width="1" fill="none" fill-rule="evenodd">
        <rect id="Rectangle-Copy-4" fill="#FFFFFF" x="0" y="0" width="36" height="36" rx="4"></rect>
        <path d="M28.4437641,6.03417217 C28.7636956,5.95713554 29.0942773,6.01130153 29.3762884,6.18704056 C29.6571074,6.36277651 29.8538044,6.63841356 29.9296392,6.96341567 L29.9296392,6.96341567 L30.5730512,9.70302293 C30.9261498,9.92448782 31.1655023,10.3181142 31.1655023,10.7694872 L31.1655023,10.7694872 L31.1655023,12.2259724 L31.9664989,15.634689 C32.1146193,16.266605 31.7579535,16.898558 31.1655023,17.1055955 L31.1655023,17.1055955 L31.1655023,19.6839189 C31.1655023,20.3760467 30.6109686,20.9381676 29.9308222,20.9381676 L29.9308222,20.9381676 L22.2608992,20.9381676 C22.2585295,21.0007613 22.2573446,21.0645569 22.2443105,21.1283525 C22.1613473,21.5448433 21.8627617,21.8939024 21.5653471,22.1502895 C21.6174838,22.2526003 21.6399973,22.3645438 21.6257783,22.4800987 C21.6174838,22.5463009 21.6127444,22.6209309 21.6068196,22.701579 C21.5724513,23.1915012 21.5132092,24.0473164 20.7347204,24.4866717 C20.7868643,24.9476897 20.7892304,25.6891826 20.3899151,26.2175922 C20.1955962,26.4739701 19.8271002,26.7821262 19.1694615,26.7953669 C19.0640058,26.7977741 18.9561779,26.7989778 18.845981,26.7989778 C18.2772206,26.7989778 17.5947082,26.7676793 16.9512961,26.7207363 L16.9512961,26.7207363 L17.030686,26.831478 C15.7284523,27.7944281 13.0707792,27.8160948 12.2697826,27.7992429 L12.2697826,27.7992429 L11.5078864,28.6622996 L12.111015,29.3556292 L10.278811,31 L4,23.7767379 L5.8318937,22.132499 L6.14351371,22.4912123 L7.18032592,21.5017848 C6.79284087,20.5003086 6.66249616,18.7103781 8.34153741,17.3153064 C9.24087645,16.5678046 10.1627536,15.5771445 10.9767937,14.70207 C12.3560452,13.2203168 13.0456557,12.507728 13.6476014,12.507728 C13.7743667,12.507728 14.1677669,12.4680079 14.6215921,12.4222666 C14.6926887,12.4138407 14.756675,12.4090262 14.8253994,12.4018039 L14.8253994,12.4018039 L14.4308162,10.7202484 C14.3537985,10.3952463 14.4071194,10.0594252 14.5801166,9.77294446 C14.7531107,9.48767475 15.0244474,9.28786332 15.3443788,9.20962184 L15.3443788,9.20962184 Z M5.7491195,23.4910159 L5.33794368,23.8605759 L10.3618418,29.6383228 L10.7730177,29.2699953 L5.7491195,23.4910159 Z M19.5047632,13.231762 C18.6790748,12.9777753 15.7356262,13.2750935 14.7177727,13.3786122 C14.1312367,13.4375946 13.8160585,13.4688899 13.6501716,13.4688899 C13.3657914,13.5374833 12.3846722,14.5919298 11.6677915,15.3622961 C10.8336096,16.2578314 9.88922474,17.2737596 8.94365685,18.0597797 C7.18049974,19.5248314 8.1284276,21.3038875 8.16990009,21.3785175 L8.16990009,21.3785175 L8.35000754,21.707125 L6.77407026,23.2104981 L10.8785483,27.932535 L11.8632166,26.815504 L12.0883517,26.8263372 C12.7103783,26.8564184 14.157153,26.8335601 15.3089003,26.5410613 C15.101544,26.5073593 14.9403982,26.4736573 14.850343,26.4399523 C14.738957,26.3990304 14.3811233,26.2196892 14.42852,25.6310677 C14.4664373,25.1604047 14.7638611,24.5164402 15.2650679,24.0999494 C15.1217099,22.9118906 15.5328554,22.2221971 15.9985412,21.8646855 C15.8776789,21.6588436 15.7828861,21.4060649 15.79592,21.120789 C15.8006581,21.0184813 15.8219859,20.89811 15.8705686,20.7705189 C15.492569,20.5562646 15.2330717,20.1505898 15.2330717,19.6799576 L15.2330717,19.6799576 L15.2330717,16.9427539 C15.1975234,16.9415503 15.1596061,16.9451615 15.1252438,16.9415503 C15.0719229,16.9367355 15.0304495,16.9343283 15.0008264,16.9355319 C14.9972718,17.03184 15.0055663,17.1786903 15.0126757,17.2942452 C15.0470136,17.9021258 15.0991576,18.8205256 14.5090725,19.9122887 L14.5090725,19.9122887 L13.6784397,19.4488672 C14.136988,18.5990608 14.0978846,17.9057311 14.0670775,17.3484174 C14.0421946,16.915071 14.0196808,16.5058247 14.3159094,16.2157325 C14.5813309,15.9557326 14.9569372,15.9581402 15.2152484,15.9834177 C16.2878546,16.0845206 18.6089732,14.4715586 19.5047632,13.231762 Z M17.652652,24.5829185 C16.8196531,24.5829185 16.4238809,24.6262531 16.2378492,24.66116 C15.7816579,24.7490433 15.4747518,25.2786578 15.3918068,25.5843977 C15.9819829,25.6806935 17.5235509,25.8335619 18.8459264,25.8335619 C18.9501961,25.8335619 19.0520997,25.8335619 19.1504482,25.8311543 C19.4549823,25.8239344 19.5746585,25.7131928 19.6374588,25.630138 C19.8174904,25.3930141 19.8281546,24.9669091 19.7985317,24.6467141 C19.3151006,24.6214368 18.4453674,24.5829185 17.652652,24.5829185 Z M20.6611364,22.6546169 C20.0532454,22.516191 18.3032228,22.4716549 16.8090363,22.5125798 C16.6585499,22.5522999 16.1597033,22.758111 16.1822169,23.6958008 C16.5151919,23.6464486 16.9986231,23.6211708 17.6538957,23.6211708 C18.6847624,23.6211708 19.8021414,23.6825597 20.1362995,23.701822 C20.5568637,23.5465469 20.622033,23.1986803 20.6611364,22.6546169 Z M21.3151744,20.9369159 L16.9049308,20.9369159 C16.8255409,21.0019163 16.7461526,21.084971 16.7414129,21.1692306 C16.7354887,21.2835961 16.8373924,21.4352596 16.9369239,21.5460013 C18.8696171,21.4966517 19.9644884,21.5700768 20.5936739,21.6760022 L20.5936739,21.6760022 C20.8933514,21.4894225 21.2677777,21.1740438 21.3151744,20.9369159 L21.3151744,20.9369159 Z M29.933268,10.4766303 L16.4665394,10.4766303 C16.3089458,10.4766303 16.1797901,10.6078329 16.1797901,10.7679242 L16.1797901,10.7679242 L16.1797901,12.2798758 C19.0070357,12.0548056 20.100724,12.1968304 20.4396141,12.7709997 C20.5118967,12.8937653 20.6517147,13.2247763 20.3779999,13.6424689 C19.6326964,14.7787283 17.7296697,16.318259 16.1797901,16.7997379 L16.1797901,16.7997379 L16.1797901,19.6826025 C16.1797901,19.8426938 16.3089458,19.9738964 16.4665394,19.9738964 L16.4665394,19.9738964 L29.933268,19.9738964 C30.0884926,19.9738964 30.2200173,19.8402872 30.2200173,19.6826025 L30.2200173,19.6826025 L30.2200173,10.7679242 C30.2200173,10.6102395 30.0884926,10.4766303 29.933268,10.4766303 L29.933268,10.4766303 Z M28.5137604,17.0658224 L28.5137604,18.0287802 L22.3356579,18.0287802 L22.3356579,17.0658224 L28.5137604,17.0658224 Z M28.5137604,14.7439385 L28.5137604,15.7068963 L22.3356579,15.7068963 L22.3356579,14.7439385 L28.5137604,14.7439385 Z M28.7386094,6.9638022 L28.6640042,6.97155936 L18.1704271,9.51497592 L29.5562512,9.51497592 L29.0088155,7.18702156 C28.9910429,7.11239156 28.9448292,7.04859599 28.8796599,7.00767105 C28.8144876,6.96674458 28.7386528,6.95350383 28.6640042,6.97155936 Z" id="Combined-Shape" fill="#A7A7A7"></path>
    </g>
</svg>