<?xml version="1.0" encoding="UTF-8"?>
<svg width="36px" height="36px" viewBox="0 0 36 36" version="1.1" xmlns="http://www.w3.org/2000/svg" xmlns:xlink="http://www.w3.org/1999/xlink">
    <!-- Generator: Sketch 59.1 (86144) - https://sketch.com -->
    <title>Icon / Menu / Apparel / Face masks</title>
    <desc>Created with Sketch.</desc>
    <g id="Icon-/-Menu-/-Apparel-/-Face-masks" stroke="none" stroke-width="1" fill="none" fill-rule="evenodd">
        <rect id="Rectangle-Copy-5" fill="#FFFFFF" x="0" y="0" width="36" height="36" rx="4"></rect>
        <path d="M17.8038151,10.0278532 C17.9315374,9.99142024 18.0693118,9.99001759 18.1970414,10.0278532 L18.1970414,10.0278532 L26.6901868,12.5067727 C27.1264722,11.8874195 28.0076402,10.9050912 29.2332576,10.8882752 C29.3982212,10.8882752 31.3713317,11.1327861 31.6791082,11.888276 C32.0260914,12.7400055 32.1137949,13.1444802 32.0592936,13.3467175 L32.0547448,13.357 L32.065829,13.3695942 C32.1105038,13.4333672 32.1363428,13.6066013 32.1415332,13.9778906 L32.1425082,14.126581 C32.1425082,15.0590135 31.8778403,16.3256423 31.8061674,16.5326118 C30.8146058,19.3959399 27.6170205,22.3775396 27.4711348,22.5121429 C27.4668296,22.5163469 27.4610886,22.5191497 27.4567834,22.5233533 C27.4524779,22.5261561 27.4496074,22.5317613 27.4453022,22.5345637 C27.2855328,22.6806426 23.4348668,26.0166151 18.0291639,26.0166151 C12.5108421,26.0166151 8.73365205,22.6817269 8.56143412,22.5401958 L8.59098456,22.5666847 C8.61158014,22.5865897 8.61681194,22.5924862 8.52986102,22.5121698 C8.37334936,22.3676002 4.43335885,19.0001487 3.86293333,15.958166 C3.64897591,14.8171672 3.60283854,13.8691745 3.86293333,12.8264753 C3.92795703,12.5658005 3.99397464,12.4508375 4.05936289,12.4243887 L4.06974476,12.422 L4.07438068,12.3984746 C4.09476246,12.2933859 4.13245544,12.1723452 4.19073619,12.0333417 L4.25600088,11.888276 C4.66770426,11.0281063 6.60648615,10.8868762 6.7733072,10.8868762 C7.99031391,10.9036649 8.87148187,11.8859845 9.30920015,12.5067727 L9.30920015,12.5067727 Z M17.9988025,11.3719913 L9.68641712,13.7976389 L9.68641712,21.6980243 C12.3114184,23.751778 15.0538215,24.7786548 17.9136265,24.7786548 C20.7734314,24.7786548 23.5721287,23.7573862 26.3097183,21.7148489 C26.3269074,16.4417258 26.3269074,13.8026557 26.3097183,13.7976389 L26.3097183,13.7976389 L17.9988025,11.3719913 Z M11.1209885,20.2566938 C11.3320693,19.9846436 11.6928333,19.921758 12.0457911,20.1099142 C14.5459945,21.4427328 15.0130201,21.7148489 17.9898937,21.7148489 C20.9667674,21.7148489 21.4231747,21.3021402 23.9542033,20.1099142 C24.346089,19.9253188 24.6679322,19.9846242 24.8790059,20.2566938 C25.0900796,20.5287634 25.0178649,20.9070985 24.7179333,21.0994325 C22.4933734,22.525506 20.0203902,22.9813132 18.0291639,22.9813132 C14.0774242,22.9813132 11.3264954,21.1285357 11.2820611,21.0994325 C10.982133,20.9070823 10.9099255,20.5300105 11.1209885,20.2566938 Z M8.55674476,22.534 L8.56143412,22.5401958 L8.57574476,22.552 L8.56381165,22.5406959 L8.56381165,22.5406959 L8.55674476,22.534 Z M29.2418547,12.2293283 C28.587246,12.2310751 27.9487819,13.0491058 27.6832779,13.4751017 L27.6832779,13.4751017 L27.6818428,20.3513033 C28.6531375,19.2821337 29.9620904,17.6518443 30.491888,16.1384368 C30.5523263,15.9657903 30.964702,15.1150139 30.877151,13.7976389 C30.8715858,13.7139009 30.8730915,13.647724 30.8805581,13.5960518 L30.8897448,13.554 C30.865755,13.5289666 30.8472402,13.5055363 30.8288105,13.4787066 L30.7736877,13.3876722 C30.2914323,12.4946894 29.766137,12.2279292 29.2418547,12.2293283 Z M6.75609901,12.2279292 C6.63529395,12.2261449 6.31068847,12.0808289 6.0278111,12.2293283 C5.31726212,12.6023381 5.19657837,12.8286568 5.02289038,12.9419463 L5.01474476,12.946 L5.02833365,12.98063 C5.04015946,13.0229649 5.04909989,13.0778356 5.05448089,13.1478731 L5.05979857,13.2646332 C5.07384961,13.9944605 5.07384961,14.6703521 5.2846795,15.6041156 C5.65649904,17.2509006 7.23401065,19.1587659 8.31610872,20.3498684 L8.31610872,20.3498684 L8.31610872,13.4751017 C8.05202285,13.0505049 7.41197836,12.2363368 6.75609901,12.2279292 Z M11.0478572,17.4819897 C11.185314,17.0887859 11.5633954,16.8987489 11.9115213,17.0550837 C14.7520966,18.3307162 14.9408088,18.8390708 17.9898937,18.8459395 C21.0389787,18.8528082 21.5138605,18.2229344 24.0359203,17.0823965 C24.4425628,16.8985026 24.7621099,17.0438759 24.9287323,17.422623 C25.0939791,17.8013784 24.9620568,18.2619571 24.6343678,18.4529329 C22.6420075,19.6132291 19.9661272,20.005367 18,20.005367 C14.2163995,20.005367 11.6130014,18.5716909 11.4158306,18.4802128 C11.0756276,18.3229425 10.911783,17.875178 11.0478572,17.4819897 Z M30.8960901,13.52904 L30.8897448,13.554 L30.9411214,13.6016663 C31.1132539,13.7332402 31.3066863,13.6456476 31.5862497,13.591735 C31.3450868,13.6338527 30.9881408,13.2635193 30.8960901,13.52904 Z M31.6278212,13.581348 L31.5862497,13.591735 L31.5862497,13.591735 C31.7922406,13.5520106 31.9765631,13.5491731 32.0454808,13.3870479 L32.0547448,13.357 C31.9618244,13.2845013 31.8184612,13.5196747 31.6278212,13.581348 Z M4.58703666,13.0319063 C4.77920837,13.0319063 4.88797918,13.0123468 4.97372377,12.9700663 L5.01474476,12.946 L5.00851516,12.9262006 C4.91398772,12.7282306 4.71179196,13.0043156 4.58703666,13.0319063 Z M4.09199705,12.4182758 L4.06974476,12.422 L4.05964794,12.4983206 C4.0197594,12.9085902 4.28442772,13.0319063 4.58703666,13.0319063 C4.45386201,13.0606355 4.27654161,12.422433 4.09199705,12.4182758 Z" id="Combined-Shape" fill="#A7A7A7"></path>
    </g>
</svg>