<?xml version="1.0" encoding="UTF-8"?>
<svg width="36px" height="36px" viewBox="0 0 36 36" version="1.1" xmlns="http://www.w3.org/2000/svg" xmlns:xlink="http://www.w3.org/1999/xlink">
    <!-- Generator: Sketch 59.1 (86144) - https://sketch.com -->
    <title>Icon / Menu / Social / FB</title>
    <desc>Created with Sketch.</desc>
    <g id="Icon-/-Menu-/-Social-/-FB" stroke="none" stroke-width="1" fill="none" fill-rule="evenodd">
        <rect id="Rectangle" fill="#FFFFFF" x="0" y="0" width="36" height="36" rx="4"></rect>
        <path d="M24.6666667,10 L11.3333333,10 C10.5966667,10 10,10.5966667 10,11.3333333 L10,24.6666667 C10,25.4033333 10.5966667,26 11.3333333,26 L18.6666667,26 L18.6666667,20 L16.6666667,20 L16.6666667,17.3333333 L18.6666667,17.3333333 L18.6666667,15.6086667 C18.6666667,13.542 19.9286667,12.4166667 21.7726667,12.4166667 C22.656,12.4166667 23.4146667,12.4826667 23.636,12.512 L23.636,14.672 L22.3573333,14.6726667 C21.3546667,14.6726667 21.1606667,15.1493333 21.1606667,15.848 L21.1606667,17.3333333 L24.1206667,17.3333333 L23.454,20 L21.1606667,20 L21.1606667,26 L24.6666667,26 C25.4033333,26 26,25.4033333 26,24.6666667 L26,11.3333333 C26,10.5966667 25.4033333,10 24.6666667,10 Z" id="Path" fill="#A7A7A7"></path>
    </g>
</svg>