<?xml version="1.0" encoding="UTF-8"?>
<svg width="36px" height="36px" viewBox="0 0 36 36" version="1.1" xmlns="http://www.w3.org/2000/svg" xmlns:xlink="http://www.w3.org/1999/xlink">
    <!-- Generator: Sketch 59.1 (86144) - https://sketch.com -->
    <title>Icon / Menu / Print / Greeting</title>
    <desc>Created with Sketch.</desc>
    <g id="Icon-/-Menu-/-Print-/-Greeting" stroke="none" stroke-width="1" fill="none" fill-rule="evenodd">
        <rect id="Rectangle-Copy-3" fill="#FFFFFF" x="0" y="0" width="36" height="36" rx="4"></rect>
        <path d="M26.2702332,12.1618367 L26.2702332,7.42901805 C26.2702332,7.19432906 26.1015855,7 25.8626524,7 L10.1372919,7 C9.89837266,7 9.72971111,7.19433449 9.72971111,7.42901805 L9.72971111,12.1618367 L6.26166301,13.6995161 C6.1049048,13.7674804 6.00328499,13.918277 6.00000819,14.08607 L6.00000819,26.9207264 C5.99679807,28.0644302 6.93733598,28.995759 8.10276177,29 L27.8972877,29 C29.0626858,28.9957522 30.0032461,28.0644302 30.0000412,26.9207264 L30.0000412,14.08607 C29.9967648,13.9182824 29.8951419,13.7674804 29.7383865,13.6995161 L26.2702332,12.1618367 Z M26.2702332,13.0941986 L28.6940199,14.1709983 L26.2702332,15.8881579 L26.2702332,13.0941986 Z M10.5944122,7.84974445 L25.405366,7.84974445 L25.405366,16.5011146 L18.717798,21.2491029 C18.2886025,21.5581231 17.7048103,21.5581231 17.2756424,21.2491029 L10.5944122,16.5011146 L10.5944122,7.84974445 Z M9.72954506,13.0941986 L9.72954506,15.8891638 L7.30575832,14.1709439 L9.72954506,13.0941986 Z M6.86455153,26.9205905 L6.86455153,14.9164582 L14.6613635,20.442774 L6.92184033,27.3009189 C6.88184057,27.1777349 6.86238175,27.0492388 6.86454322,26.9207536 L6.86455153,26.9205905 Z M27.8970137,28.1503624 L8.10248778,28.1503624 C7.87437872,28.149248 7.65059815,28.087655 7.4549306,27.9697803 L15.3715786,20.952599 L16.7640009,21.939142 L16.7640009,21.9380799 C17.5013105,22.4616227 18.4980526,22.4616227 19.2353622,21.9380799 L20.6299709,20.9504766 L28.5446816,27.9698328 C28.3500879,28.0877074 28.1252279,28.1503624 27.8971244,28.1503624 L27.8970137,28.1503624 Z M29.1348669,26.9205905 C29.1370292,27.0490866 29.1175696,27.1775799 29.0775698,27.3007558 L21.3402607,20.4417953 L29.1348586,14.916567 L29.1348669,26.9205905 Z" id="Combined-Shape" fill="#A7A7A7"></path>
    </g>
</svg>