<?xml version="1.0" encoding="UTF-8"?>
<svg width="36px" height="36px" viewBox="0 0 36 36" version="1.1" xmlns="http://www.w3.org/2000/svg" xmlns:xlink="http://www.w3.org/1999/xlink">
    <!-- Generator: Sketch 54.1 (76490) - https://sketchapp.com -->
    <title>Menu - Icon - Tech - Desktop</title>
    <desc>Created with Sketch.</desc>
    <g id="Web---Main" stroke="none" stroke-width="1" fill="none" fill-rule="evenodd">
        <g id="List---Logged-user" transform="translate(-520.000000, -133.000000)">
            <g id="Dropdown---Technology" transform="translate(500.000000, 57.000000)">
                <g id="Desktop" transform="translate(20.000000, 76.000000)">
                    <g id="Icon-/-Menu-/-Tech-/-Desktop">
                        <rect id="Rectangle-Copy-4" fill="#FFFFFF" x="0" y="0" width="36" height="36" rx="4"></rect>
                        <path d="M29.2058446,9.00002568 L6.79305763,9.00002568 C5.80455047,9.00002568 5,9.76105712 5,10.6949683 L5,24.0731314 C5,25.0081355 5.80457936,25.768074 6.79305763,25.768074 L14.6715916,25.768074 L14.3240441,27.7052995 L10.2638822,27.7063668 C9.88585815,27.7063668 9.58005329,27.9956199 9.58005329,28.3531834 C9.58005329,28.7107469 9.88585815,29 10.2638822,29 L25.9649081,29 C26.3429322,29 26.6487371,28.7107469 26.6487371,28.3531834 C26.6487371,27.9956199 26.3429322,27.7063668 25.9649081,27.7063668 L21.9059018,27.7063668 L21.5583542,25.7691412 L29.2069424,25.7691412 C30.1954495,25.7691412 31,25.0081098 31,24.0741987 L30.9988716,10.6949426 C30.9988716,9.76100411 30.1942923,9 29.205814,9 L29.2058446,9.00002568 Z M17.9994511,27.7052995 L15.7121255,27.7052995 L16.059673,25.768074 L17.9994222,25.7691415 L20.1705039,25.7691415 L20.5180515,27.7063671 L17.9994511,27.7052995 Z M29.6302045,24.073104 C29.6302045,24.2908445 29.436114,24.4744407 29.2059024,24.4744407 L6.7931154,24.4744407 C6.56291534,24.4744407 6.36881332,24.2908554 6.36881332,24.073104 L6.36881332,10.6949409 C6.36881332,10.4772005 6.56290379,10.2936042 6.7931154,10.2936042 L17.9995089,10.2946715 L29.2059024,10.2946715 C29.4361025,10.2946715 29.6302045,10.4782568 29.6302045,10.6960082 L29.6302045,24.073104 Z" id="Shape" fill="#A7A7A7"></path>
                    </g>
                </g>
            </g>
        </g>
    </g>
</svg>