<?xml version="1.0" encoding="UTF-8"?>
<svg width="36px" height="36px" viewBox="0 0 36 36" version="1.1" xmlns="http://www.w3.org/2000/svg" xmlns:xlink="http://www.w3.org/1999/xlink">
    <!-- Generator: Sketch 59.1 (86144) - https://sketch.com -->
    <title>Icon / Menu / Tech / Laptop</title>
    <desc>Created with Sketch.</desc>
    <g id="Icon-/-Menu-/-Tech-/-Laptop" stroke="none" stroke-width="1" fill="none" fill-rule="evenodd">
        <rect id="Rectangle-Copy-3" fill="#FFFFFF" x="0" y="0" width="36" height="36" rx="4"></rect>
        <path d="M30.5388921,26.0440987 C30.793815,26.0440987 31.0010119,26.2591973 31,26.5215255 C31,26.7859383 30.793828,27 30.537878,27 L30.537878,27 L5.46211827,27 C5.20719789,27 5,26.7859544 5,26.5215255 C5,26.2592081 5.20616824,26.0440987 5.46211827,26.0440987 L5.46211827,26.0440987 Z M27.7914296,10 C28.462779,10 29.0072949,10.5645418 29.0072949,11.2560358 L29.0072949,11.2560358 L29.0072949,24.9620781 L6.99368944,24.9620781 L6.99368944,11.2560358 C6.99368944,10.5645418 7.53911536,10 8.20945076,10 L8.20945076,10 Z M28.0818883,10.9559819 L7.91774396,10.9559819 L7.91774396,24.0073856 L28.0829283,24.0073856 L28.0818883,10.9559819 Z" id="Combined-Shape" stroke="#979797" stroke-width="0.2" fill="#A7A7A7"></path>
    </g>
</svg>