<?xml version="1.0" encoding="UTF-8"?>
<svg width="36px" height="36px" viewBox="0 0 36 36" version="1.1" xmlns="http://www.w3.org/2000/svg" xmlns:xlink="http://www.w3.org/1999/xlink">
    <!-- Generator: Sketch 59.1 (86144) - https://sketch.com -->
    <title>Icon / Menu / Tech / Multiple</title>
    <desc>Created with Sketch.</desc>
    <g id="Icon-/-Menu-/-Tech-/-Multiple" stroke="none" stroke-width="1" fill="none" fill-rule="evenodd">
        <rect id="Rectangle-Copy-6" fill="#FFFFFF" x="0" y="0" width="36" height="36" rx="4"></rect>
        <g id="Group" transform="translate(4.000000, 8.000000)" fill="#A7A7A7">
            <path d="M5.33129142,0 L26.3198258,0 C27.1967719,0 27.9191555,0.717156779 27.9927667,1.62645155 L27.9989433,1.77968971 L28,15.8279086 C28,16.7569044 27.3237957,17.5229815 26.4655281,17.6010477 L26.3208825,17.6075983 L19.158325,17.6075983 L19.4837876,19.6416851 L23.2848638,19.6416851 C23.6388663,19.6416851 23.9252387,19.9454009 23.9252387,20.3208426 C23.9252387,20.6621531 23.6885673,20.9441862 23.3795688,20.9926442 L23.2848638,21 L10,21 L9.99917391,19.641 L12.3837202,19.6405645 L12.7091828,17.6064776 L9.99917391,17.606 L9.99917391,16.248 L26.3199086,16.2481628 C26.5085436,16.2481628 26.6712806,16.1005686 26.7090174,15.9105075 L26.7172484,15.8267592 L26.7172484,1.78080863 C26.7172484,1.58074954 26.5780824,1.40815678 26.3988745,1.36813451 L26.3199086,1.3594051 L15.8256271,1.3594051 L5.33134553,1.35828446 C5.14271059,1.35828446 4.97997355,1.50587862 4.94223671,1.69593971 L4.93400578,1.77968799 L4.93317391,3.937 L3.65217391,3.937 L3.65217391,1.77971668 C3.65217391,0.850720851 4.32837824,0.0846196001 5.18664579,0.00655075888 L5.33129142,0 L26.3198258,0 Z M6.75965723,6.17647059 C7.44201113,6.17647059 8,6.70791018 8,7.35609308 L8,7.35609308 L8,19.8203775 C8,20.4693272 7.44201113,21 6.75965723,21 L6.75965723,21 L1.24033863,21 C0.99243546,21 0.743713659,20.9216652 0.557984732,20.8033963 C0.393267213,20.7050944 0.268902178,20.5676251 0.16554028,20.4101888 C0.103361897,20.2919119 0.0419897372,20.1544505 0.0209948686,20.0169813 C0,19.9578468 0,19.879512 0,19.8203775 L0.000777587726,7.29198074 C0.00233276318,7.24686877 0.00699828953,7.19891231 0.0209948686,7.15948933 C0.0411835144,7.02202399 0.0831732516,6.88455078 0.16554028,6.76628183 C0.268902178,6.60884155 0.392444452,6.47137621 0.557984732,6.37307434 C0.744532285,6.25480539 0.99243546,6.17647059 1.24033863,6.17647059 L1.24033863,6.17647059 Z M2.33934016,7.41176471 L1.55755522,7.41176471 C1.42089922,7.41176471 1.2842393,7.48478785 1.22545298,7.59503733 C1.18651619,7.65016207 1.16666667,7.7052868 1.16666667,7.77830995 L1.16666667,7.77830995 L1.16666667,19.3981606 C1.16666667,19.4711838 1.18651619,19.5263085 1.22545298,19.5814333 C1.28424321,19.6916827 1.42089531,19.7647059 1.55755522,19.7647059 L1.55755522,19.7647059 L6.7757742,19.7647059 C6.99106995,19.7647059 7.16666667,19.6000538 7.16666667,19.3981606 L7.16666667,19.3981606 L7.16666667,7.77830995 C7.16666667,7.57642416 6.99107777,7.41176471 6.7757742,7.41176471 L6.7757742,7.41176471 L5.99398927,7.41176471 C5.99398927,7.55852942 5.91611567,7.68667364 5.79854304,7.77830995 C5.72067726,7.83343469 5.62294632,7.86994626 5.50537369,7.86994626 L5.50537369,7.86994626 L2.82795574,7.86994626 C2.7103831,7.86994626 2.61265999,7.83343469 2.53478639,7.77830995 C2.47600007,7.72318521 2.41721375,7.66806047 2.37827695,7.59503733 C2.35918968,7.53991259 2.33934016,7.48478785 2.33934016,7.41176471 L2.33934016,7.41176471 Z M14.0090584,17.6064776 L13.6835958,19.6405645 L15.825573,19.6405645 L18.1841285,19.6416854 L17.8586659,17.6075986 L15.8255459,17.6075986 L14.0090584,17.6064776 Z" id="Combined-Shape"></path>
        </g>
    </g>
</svg>