<?xml version="1.0" encoding="UTF-8"?>
<svg width="36px" height="36px" viewBox="0 0 36 36" version="1.1" xmlns="http://www.w3.org/2000/svg" xmlns:xlink="http://www.w3.org/1999/xlink">
    <!-- Generator: Sketch 59.1 (86144) - https://sketch.com -->
    <title>Icon / Menu / Print / Other</title>
    <desc>Created with Sketch.</desc>
    <g id="Icon-/-Menu-/-Print-/-Other" stroke="none" stroke-width="1" fill="none" fill-rule="evenodd">
        <rect id="Rectangle-Copy-7" fill="#FFFFFF" x="0" y="0" width="36" height="36" rx="4"></rect>
        <path d="M12.0723754,5.30579891 C13.5274348,5.82303251 14.673863,6.94305945 15.2281056,8.36135399 L31,8.36164251 L31,20.8346302 L25.988,20.834 L27.3415604,22.1827874 L18.484926,31 L7.12044036,19.6639347 L7.12071761,14.5071488 C5.81020156,13.5223492 5.02331064,11.9903205 5.00046212,10.3489694 C4.97759884,8.62074293 5.80430286,6.99070382 7.2134116,5.98580317 C8.62372175,4.97958231 10.4384475,4.72649963 12.0723754,5.30579891 Z M15.5967799,11.8061828 L12.824,11.806 L12.8195338,11.8110952 L10.5235633,11.8110952 L8.26518049,14.0762084 C8.86557977,14.3971665 9.53086535,14.5734222 10.207173,14.5936562 C10.207942,14.5949541 10.2086076,14.5949698 10.2092732,14.5949854 C10.3273483,14.5972516 10.4478717,14.5959207 10.5684408,14.5895999 L10.4419286,14.4590161 C10.2530041,14.2707223 10.2530041,13.9660836 10.4419286,13.7777837 C10.630853,13.5894838 10.9365121,13.58949 11.1254427,13.7777837 L11.6067799,14.257514 C11.6616532,14.3114839 11.7017968,14.3771114 11.725132,14.4486984 C11.7932334,14.4698487 11.8591117,14.5090053 11.9148356,14.5645414 L12.5694542,15.2169746 C12.6609098,15.3069244 12.7114494,15.4292564 12.7114494,15.5575908 C12.7114494,15.6859252 12.6609098,15.808251 12.5694542,15.898207 C12.4792031,15.9881568 12.3552599,16.0385277 12.2276971,16.0373272 C12.1001435,16.0385265 11.9761973,15.9881537 11.88594,15.898207 L11.4408965,15.4567402 C11.4227957,15.4625811 11.4041611,15.4674356 11.3850413,15.4712301 C10.2710977,15.6918356 9.11506982,15.5540713 8.08397935,15.0783226 L8.08342272,15.1595359 L8.082,15.158 L8.08299144,19.2755451 L18.4848028,29.6472373 L25.9841126,22.1827874 L24.634,20.834 L24.631871,20.8346302 L17.142,13.35 L15.5967799,11.8061828 Z M30.0373257,9.3211031 L15.321,9.321 L13.789,10.846 L15.9678023,10.8466608 L21.373,16.234 L21.373257,10.7601405 L22.3359313,10.7601405 L22.335,17.193 L25.0264904,19.8751696 L30.0373257,19.8751696 L30.0373257,9.3211031 Z M25.2236461,10.7601405 L25.2236461,18.4358252 L24.2609718,18.4358252 L24.2609718,10.7601405 L25.2236461,10.7601405 Z M28.1119771,10.7601405 L28.1119771,18.4358252 L27.1493028,18.4358252 L27.1493028,10.7601405 L28.1119771,10.7601405 Z M10.3024101,5.96302174 C8.4997601,5.96314455 6.8848085,7.07611884 6.24959749,8.75758503 C5.61423245,10.4390512 6.08955327,12.3375244 7.44331362,13.5235712 L10.1290671,10.8468297 L12.4251608,10.8466608 L14.3986278,8.87978193 C13.7981654,7.13595847 12.1531784,5.96421915 10.3024101,5.96302174 Z" id="Combined-Shape" fill="#A7A7A7"></path>
    </g>
</svg>