<?xml version="1.0" encoding="UTF-8"?>
<svg width="36px" height="36px" viewBox="0 0 36 36" version="1.1" xmlns="http://www.w3.org/2000/svg" xmlns:xlink="http://www.w3.org/1999/xlink">
    <!-- Generator: Sketch 59.1 (86144) - https://sketch.com -->
    <title>Icon / Menu / Print / Outdoor</title>
    <desc>Created with Sketch.</desc>
    <g id="Icon-/-Menu-/-Print-/-Outdoor" stroke="none" stroke-width="1" fill="none" fill-rule="evenodd">
        <rect id="Rectangle-Copy-10" fill="#FFFFFF" x="0" y="0" width="36" height="36" rx="4"></rect>
        <path d="M29.7906977,6.76923077 L25.7093023,6.76923077 L25.7093023,6.46153846 C25.7093023,6.20673231 25.5061758,6 25.255814,6 C25.0054521,6 24.8023256,6.20673231 24.8023256,6.46153846 L24.8023256,6.76923077 L18.4534884,6.76923077 L18.4534884,6.46153846 C18.4534884,6.20673231 18.2503619,6 18,6 C17.7496381,6 17.5465116,6.20673231 17.5465116,6.46153846 L17.5465116,6.76923077 L11.1976744,6.76923077 L11.1976744,6.46153846 C11.1976744,6.20673231 10.9945479,6 10.744186,6 C10.4938242,6 10.2906977,6.20673231 10.2906977,6.46153846 L10.2906977,6.76923077 L6.20930233,6.76923077 C5.54442791,6.76923077 5,7.32332308 5,8 L5,21.2307692 C5,21.9074462 5.54442791,22.4615385 6.20930233,22.4615385 L15.8837209,22.4615385 L15.8837209,29.0769231 L5.90697674,29.0769231 C5.65661488,29.0769231 5.45348837,29.2836554 5.45348837,29.5384615 C5.45348837,29.7932677 5.65661488,30 5.90697674,30 L30.0930233,30 C30.3433851,30 30.5465116,29.7932677 30.5465116,29.5384615 C30.5465116,29.2836554 30.3433851,29.0769231 30.0930233,29.0769231 L20.1162791,29.0769231 L20.1162791,22.4615385 L29.7906977,22.4615385 C30.4555721,22.4615385 31,21.9074462 31,21.2307692 L31,8 C31,7.32332308 30.4555721,6.76923077 29.7906977,6.76923077 Z M6.20930233,7.69230769 L10.2906977,7.69230769 L10.2906977,8.61538462 L9.23255814,8.61538462 C8.89951628,8.61538462 8.62790698,8.89182769 8.62790698,9.23076923 L8.62790698,10.7692308 C8.62790698,11.1081846 8.89952837,11.3846154 9.23255814,11.3846154 L12.255814,11.3846154 C12.5888558,11.3846154 12.8604651,11.1081723 12.8604651,10.7692308 L12.8604651,9.23076923 C12.8604651,8.89181538 12.5888437,8.61538462 12.255814,8.61538462 L11.1976744,8.61538462 L11.1976744,7.69230769 L17.5465116,7.69230769 L17.5465116,8.61538462 L16.4883721,8.61538462 C16.1553302,8.61538462 15.8837209,8.89182769 15.8837209,9.23076923 L15.8837209,10.7692308 C15.8837209,11.1081846 16.1553423,11.3846154 16.4883721,11.3846154 L19.5116279,11.3846154 C19.8446698,11.3846154 20.1162791,11.1081723 20.1162791,10.7692308 L20.1162791,9.23076923 C20.1162791,8.89181538 19.8446577,8.61538462 19.5116279,8.61538462 L18.4534884,8.61538462 L18.4534884,7.69230769 L24.8023256,7.69230769 L24.8023256,8.61538462 L23.744186,8.61538462 C23.4111442,8.61538462 23.1395349,8.89182769 23.1395349,9.23076923 L23.1395349,10.7692308 C23.1395349,11.1081846 23.4111563,11.3846154 23.744186,11.3846154 L26.7674419,11.3846154 C27.1004837,11.3846154 27.372093,11.1081723 27.372093,10.7692308 L27.372093,9.23076923 C27.372093,8.89181538 27.1004716,8.61538462 26.7674419,8.61538462 L25.7093023,8.61538462 L25.7093023,7.69230769 L29.7906977,7.69230769 C29.9548514,7.69230769 30.0930233,7.83413538 30.0930233,8 L30.0930233,19.2307692 L5.90697674,19.2307692 L5.90697674,8 C5.90697674,7.83413538 6.0451486,7.69230769 6.20930233,7.69230769 Z M11.9534884,9.53846154 L11.9534884,10.4615385 L9.53488372,10.4615385 L9.53488372,9.53846154 L11.9534884,9.53846154 Z M19.2093023,9.53846154 L19.2093023,10.4615385 L16.7906977,10.4615385 L16.7906977,9.53846154 L19.2093023,9.53846154 Z M26.4651163,9.53846154 L26.4651163,10.4615385 L24.0465116,10.4615385 L24.0465116,9.53846154 L26.4651163,9.53846154 Z M19.2093023,29.0769231 L16.7906977,29.0769231 L16.7906977,22.4615385 L19.2093023,22.4615385 L19.2093023,29.0769231 Z M29.7906977,21.5384615 L6.20930233,21.5384615 C6.0451486,21.5384615 5.90697674,21.3978369 5.90697674,21.2307692 L5.90697674,20.1538462 L30.0930233,20.1538462 L30.0930233,21.2307692 C30.0930233,21.3978369 29.9548514,21.5384615 29.7906977,21.5384615 Z" id="Shape" fill="#A7A7A7"></path>
    </g>
</svg>