<?xml version="1.0" encoding="UTF-8"?>
<svg width="36px" height="36px" viewBox="0 0 36 36" version="1.1" xmlns="http://www.w3.org/2000/svg" xmlns:xlink="http://www.w3.org/1999/xlink">
    <!-- Generator: Sketch 59.1 (86144) - https://sketch.com -->
    <title>Icon / Menu / Home / Pillows</title>
    <desc>Created with Sketch.</desc>
    <g id="Icon-/-Menu-/-Home-/-Pillows" stroke="none" stroke-width="1" fill="none" fill-rule="evenodd">
        <rect id="Rectangle-Copy-4" fill="#FFFFFF" x="0" y="0" width="36" height="36" rx="4"></rect>
        <path d="M17.9890012,7 C19.8039358,7 21.9293104,7.20621708 23.6094534,7.41014167 C25.2895963,7.61406625 26.5269283,7.82028333 26.5269283,7.82028333 C26.698739,7.83623458 26.8659474,7.86471875 27.0296959,7.903455 C27.4482999,7.52632708 28.0052675,7.29162583 28.6164353,7.29162583 C29.9206612,7.29162583 30.9780938,8.33637583 30.9780938,9.62495917 C30.9780938,10.2344842 30.7359353,10.7870467 30.349627,11.2017675 C30.3680774,11.2872258 30.543345,12.3035092 30.6897944,13.4735883 C30.8362526,14.6436675 30.9873155,16.1441467 30.9988469,17.49538 C30.9988469,17.49538 30.998919,17.5013614 30.9990271,17.5110989 L31,17.6400729 C31,18.9833729 30.8489365,20.4519729 30.6990361,21.5912813 C30.5491358,22.7305896 30.3992253,23.539516 30.3980723,23.5463521 L30.3980723,23.5463521 C30.3853766,23.6318775 30.3692338,23.7161867 30.3496299,23.7993583 C30.7370866,24.21405 30.9780968,24.7666417 30.9780968,25.3761667 C30.9780968,26.66475 29.9206642,27.7083608 28.6164382,27.7095 C28.0052705,27.7095 27.4483028,27.4747958 27.0296989,27.0976708 C26.8705821,27.1341292 25.4453802,27.3847817 23.8736374,27.5898583 C22.3004775,27.7937829 20.2445357,28 18.2841819,28 C16.1796489,28 13.9172981,27.7926308 12.1760472,27.5875542 C10.4348259,27.3813283 9.00491243,27.1534649 8.90574048,27.136375 C8.49174173,27.4906946 7.95207323,27.7083042 7.36165858,27.7083042 C6.05743263,27.7083042 5,26.6635542 5,25.3749708 C5,24.8326458 5.19259326,24.3324958 5.50740235,23.9371417 C5.47396126,23.7969958 5.43129495,23.5041917 5.43129495,23.5041917 C5.43014364,23.4904833 5.00117965,20.1819042 5,17.4999417 C5.0012074,14.8180667 5.47398783,11.2041329 5.50742891,11.0628583 C5.19260211,10.6675042 5,10.1673542 5,9.62502917 C5,8.33644583 6.0574592,7.29169583 7.36168515,7.29169583 C7.9520998,7.29055833 8.49179782,7.50930833 8.90576705,7.863625 C9.00731837,7.84539583 10.509776,7.61752542 12.2498756,7.41244583 C13.9898276,7.2073575 16.1739485,7.00113925 17.9890012,7 Z M17.9889982,8.16565458 C16.4781271,8.16565458 14.6366829,8.31946208 13.0522462,8.49491708 C11.4667467,8.66921708 9.03242575,9.02241667 8.87329129,9.06457125 C8.6518858,9.124955 8.41433247,9.05090083 8.26672881,8.87658333 C8.04762593,8.62023458 7.72590899,8.45845 7.36150507,8.45845 C7.03403159,8.45845 6.74226934,8.58834083 6.52662924,8.80025417 C6.31213456,9.0132875 6.18067578,9.30154167 6.18067578,9.62511667 C6.18067578,9.96464583 6.32598273,10.2642779 6.56237885,10.48075 C6.73073972,10.6356833 6.79300957,10.8749433 6.72266757,11.090275 C6.66270211,11.2702917 6.44475645,13.0316958 6.39171064,13.603625 C6.28562199,14.7473958 6.18067578,16.2182708 6.18067578,17.5 C6.17953333,19.7467083 6.50357355,22.5563333 6.58314078,23.2125833 C6.59467158,23.3071417 6.6615567,23.7286904 6.72151921,23.9098417 C6.79301548,24.1262875 6.72959018,24.3655592 6.56123049,24.5193667 C6.32597683,24.7358417 6.18067578,25.0354708 6.18067578,25.375 C6.18067578,25.6985458 6.31214636,25.9868088 6.52548089,26.1998625 C6.74110032,26.4117846 7.03285371,26.5416667 7.36035672,26.5416667 C7.72591195,26.5416667 8.04648053,26.3810196 8.26558045,26.1235333 C8.41318411,25.9503565 8.64958319,25.8763021 8.87214294,25.9355454 C9.03244051,25.9776913 11.4586609,26.3274696 12.3154412,26.4288704 C14.0291197,26.6316633 16.2569903,26.8333257 18.284238,26.8333257 C21.8081278,26.8344621 26.8105989,25.9605967 27.0273933,25.8888204 C27.2660979,25.8102075 27.5290302,25.8888204 27.6823993,26.0859229 C27.9015022,26.3650567 28.235913,26.5416521 28.6164648,26.5416521 C28.9439383,26.5416521 29.2357005,26.4117613 29.4513406,26.1998479 C29.6658932,25.9869079 29.7973531,25.6986538 29.7985062,25.3750788 C29.7973549,24.9968163 29.6174674,24.6652758 29.3326395,24.4488038 C29.1342962,24.2984204 29.0524228,24.0443467 29.1285302,23.8085079 C29.1769737,23.6569871 29.4560362,21.9946913 29.5286838,21.4398538 C29.6751332,20.3302371 29.8204312,18.8969579 29.8204312,17.6391454 C29.8204312,17.6169292 29.820143,17.5830346 29.8198547,17.5546941 L29.8192782,17.5035671 C29.8100529,16.3095713 29.6808997,14.9423838 29.5459811,13.8338171 C29.4122286,12.7252504 29.2715446,11.8718892 29.2415633,11.6907379 C29.2415633,11.6907379 29.1769867,11.3409508 29.128555,11.1894212 C29.0536019,10.9547171 29.1343204,10.7006521 29.3326643,10.5502629 C29.6174862,10.3337879 29.798531,10.0022504 29.798531,9.62398792 C29.798531,9.30044208 29.6670634,9.01217917 29.4525775,8.79912542 C29.2369581,8.58720333 28.9452047,8.45732125 28.6177017,8.45732125 C28.2371499,8.45732125 27.9027361,8.63391667 27.6836362,8.91305042 C27.5290952,9.11015292 27.2673319,9.18876583 27.0286302,9.11015292 C26.8106786,9.03837667 25.7762958,8.88115083 25.5214492,8.84355208 C25.0106225,8.7683575 24.2933572,8.66695667 23.4653893,8.56669625 C21.8116378,8.365035 19.7164334,8.16565458 17.9889982,8.16565458 Z M27.0609288,20.9522775 C27.1381846,20.7232754 27.3884141,20.5979492 27.6201991,20.6731438 C27.8520048,20.7484871 27.9788524,20.9957154 27.9038963,21.2247204 C27.4772332,22.5074413 26.5812199,23.5749996 25.4142358,24.2323871 C25.2008895,24.3531575 24.9310582,24.2791004 24.809976,24.069465 C24.6877395,23.8586775 24.7626955,23.5920825 24.9748758,23.4724525 C25.9515988,22.922165 26.7057649,22.0243858 27.0609288,20.9522775 Z M8.55661964,13.6838136 L8.63125671,13.6856271 C8.83304863,13.7106813 8.97604056,13.8929729 8.95067104,14.0934938 C8.95067104,14.0934938 8.92414725,14.3111179 8.91261586,14.4125188 C8.88954954,14.6151221 8.85956829,14.9011013 8.82843277,15.2337763 C8.767316,15.8991263 8.70619923,16.7547596 8.70619923,17.4998804 C8.70504792,18.8056429 8.89301232,20.4405804 8.94144404,20.8222554 C8.94836311,20.8769441 8.95182235,20.9054271 8.95182235,20.9054271 C8.97836148,21.1047988 8.8342088,21.2870893 8.63240802,21.3132938 C8.43061611,21.3383771 8.24495933,21.1970908 8.2195901,20.9977104 C8.21843879,20.9910021 7.96935644,19.0632021 7.96820336,17.5000438 C7.96820336,15.9369146 8.21843879,14.0091858 8.21843879,14.0012104 C8.2437971,13.8018388 8.42945594,13.6605621 8.63125671,13.6856271 Z" id="Combined-Shape" fill="#A7A7A7"></path>
    </g>
</svg>