<?xml version="1.0" encoding="UTF-8"?>
<svg width="36px" height="36px" viewBox="0 0 36 36" version="1.1" xmlns="http://www.w3.org/2000/svg" xmlns:xlink="http://www.w3.org/1999/xlink">
    <!-- Generator: Sketch 59.1 (86144) - https://sketch.com -->
    <title>Icon / Menu / Print / Sheets</title>
    <desc>Created with Sketch.</desc>
    <g id="Icon-/-Menu-/-Print-/-Sheets" stroke="none" stroke-width="1" fill="none" fill-rule="evenodd">
        <rect id="Rectangle-Copy-2" fill="#FFFFFF" x="0" y="0" width="36" height="36" rx="4"></rect>
        <path d="M15.3014806,7.00098268 L13.5748973,7 C13.343901,7 13.1569451,7.18765441 13.1569451,7.41953056 L13.1569451,9.00723241 L11.4969133,9.00723241 C11.2659171,9.00723241 11.0789612,9.19488682 11.0789612,9.42676297 L11.0789612,11.0144648 L9.41795215,11.0144648 C9.18695591,11.0144648 9,11.2021192 9,11.4339954 L9,26.0081551 C9,26.0278049 9.00880907,26.0454903 9.01174551,26.0661223 C9.01468195,26.0847896 9.01663941,26.1005097 9.02251229,26.1181939 C9.04208813,26.1908974 9.0753677,26.2567245 9.12822311,26.3078151 L12.8281521,29.8821013 C12.8477279,29.9007684 12.8731771,29.9115766 12.8956884,29.926313 C12.916243,29.9400677 12.9358198,29.9577527 12.9593109,29.9675769 C13.0092296,29.9882091 13.0630622,30 13.1168974,30 L22.4251027,30 C22.656099,30 22.8430549,29.8113622 22.8430549,29.5804694 L22.8430549,27.9927676 L24.5040639,27.9927676 C24.7350602,27.9927676 24.9220161,27.8041297 24.9220161,27.573237 L24.9220161,25.9855352 L26.5820478,25.9855352 C26.8130441,25.9855352 27,25.7968973 27,25.5660046 C27,17.5160267 27,11.467202 27,7.41953056 C27,7.21936344 26.8700615,7.00098268 26.5820478,7.00098268 C22.8461802,7.00098268 19.0859911,7.00098268 15.3014806,7.00098268 Z M12.7008059,28.5961423 L10.4544885,26.4268071 L12.7008059,26.4268071 L12.7008059,28.5961423 Z M13.535708,29.1610749 L13.535708,26.0062957 C13.535708,25.7744271 13.3487596,25.5867651 13.1177558,25.5867651 L9.83577902,25.5877475 L9.83577902,11.8526489 L11.4938564,11.8526489 L22.0079652,11.8526489 L22.0079652,29.1610749 L13.535708,29.1610749 Z M22.8469202,27.1538425 L22.8469202,11.4330162 C22.8469202,11.2011476 22.6589921,11.0134857 22.4289681,11.0134857 L11.9147652,11.0144683 L11.9147652,9.84531614 L13.5718653,9.84531614 L24.0869765,9.84531614 L24.0869765,27.1538425 L22.8469202,27.1538425 Z M26.1669838,25.147591 L24.9258814,25.147591 L24.9258814,9.42676473 C24.9258814,9.19489612 24.7379532,9.00723417 24.5079292,9.00723417 L13.9927241,9.00723417 L13.9927241,7.83906289 L26.1669838,7.83906289 L26.1669838,25.147591 Z" id="Combined-Shape" fill="#A7A7A7"></path>
        <path d="M20,15.5 C20,15.7754 19.7886024,16 19.5294118,16 L12.4705882,16 C12.2113882,16 12,15.77539 12,15.5 C12,15.22461 12.2113976,15 12.4705882,15 L19.5294118,15 C19.7886118,15 20,15.22461 20,15.5 Z" id="Path" fill="#A7A7A7"></path>
        <path d="M20,18.5 C20,18.7754 19.7886024,19 19.5294118,19 L12.4705882,19 C12.2113882,19 12,18.77539 12,18.5 C12,18.22461 12.2113976,18 12.4705882,18 L19.5294118,18 C19.7886118,18 20,18.22461 20,18.5 Z" id="Path" fill="#A7A7A7"></path>
        <path d="M20,21.5 C20,21.7754 19.7886024,22 19.5294118,22 L12.4705882,22 C12.2113882,22 12,21.77539 12,21.5 C12,21.22461 12.2113976,21 12.4705882,21 L19.5294118,21 C19.7886118,21 20,21.22461 20,21.5 Z" id="Path" fill="#A7A7A7"></path>
    </g>
</svg>