<?xml version="1.0" encoding="UTF-8"?>
<svg width="36px" height="36px" viewBox="0 0 36 36" version="1.1" xmlns="http://www.w3.org/2000/svg" xmlns:xlink="http://www.w3.org/1999/xlink">
    <!-- Generator: Sketch 59.1 (86144) - https://sketch.com -->
    <title>Icon / Menu / Tech / Software</title>
    <desc>Created with Sketch.</desc>
    <g id="Icon-/-Menu-/-Tech-/-Software" stroke="none" stroke-width="1" fill="none" fill-rule="evenodd">
        <rect id="Rectangle-Copy-10" fill="#FFFFFF" x="0" y="0" width="36" height="36" rx="4"></rect>
        <g id="np_add-update_796709_000000" transform="translate(5.000000, 6.000000)" fill="#A7A7A7">
            <path d="M19.4550275,24 C17.7182131,24 16.0538705,23.3170638 14.8259027,22.1014212 C13.5989241,20.88671 12.9090909,19.2382195 12.9090909,17.5195343 C12.9090909,15.8010162 13.599865,14.1523824 14.8268436,12.9376473 C16.0547631,11.7220047 17.7199259,11.04 19.4559684,11.04 C21.1927828,11.0409331 22.8571254,11.7238676 24.0841281,12.9395103 C25.3120476,14.1551529 26.0009399,15.8036673 26,17.5230691 C25.9971718,19.2397242 25.3064023,20.8863996 24.0794237,22.1001792 C22.8524451,23.3148904 21.1892364,23.9978266 19.455124,23.9996895 L19.4550275,24 Z M19.4550275,12.1242095 C18.0094031,12.1242095 16.6232229,12.6923836 15.6005598,13.7046548 C14.5790064,14.7159946 14.0041535,16.0883872 14.0041535,17.5196298 C14.0041535,18.9498692 14.5780655,20.3221664 15.5996189,21.3346048 C16.6211723,22.346876 18.0074248,22.9159827 19.4531216,22.9159827 C20.8978051,22.9169144 22.2839612,22.348739 23.3066243,21.3373992 C24.3291185,20.3260594 24.9039715,18.9536668 24.9049124,17.5233796 C24.90397,16.0922087 24.3300594,14.7198877 23.3075652,13.7074492 C22.2860118,12.695178 20.8997593,12.1260725 19.4550275,12.1242095 L19.4550275,12.1242095 Z" id="Shape"></path>
            <path d="M19.4546704,19.2 C19.0043852,19.2 18.572889,19.0229425 18.254527,18.7077759 C17.9364214,18.3928508 17.7575758,17.9654643 17.7575758,17.5198793 C17.7575758,17.0743375 17.9366653,16.6469139 18.2547709,16.3319826 C18.5731204,16.016816 19.0048293,15.84 19.4549144,15.84 C19.9051996,15.8402419 20.3366958,16.017299 20.6548076,16.3324656 C20.9731571,16.6476322 21.1517588,17.0750249 21.1515152,17.5207957 C21.1507819,17.9658544 20.9716935,18.3927703 20.653588,18.7074539 C20.3354824,19.022379 19.9042801,19.1994365 19.4546954,19.1999195 L19.4546704,19.2 Z M19.4546704,16.1210914 C19.0798789,16.1210914 18.7204989,16.2683957 18.455364,16.5308364 C18.1905168,16.7930356 18.0414809,17.1488411 18.0414809,17.519904 C18.0414809,17.8907068 18.1902729,18.2464876 18.45512,18.5089716 C18.7199672,18.7714123 19.079366,18.9189585 19.4541763,18.9189585 C19.8287239,18.9192 20.1880977,18.7718953 20.4532326,18.5096961 C20.7183237,18.2474969 20.8673596,17.8916914 20.8676035,17.5208762 C20.8673592,17.1498319 20.7185676,16.7940449 20.4534765,16.5315609 C20.1886293,16.2691202 19.8292305,16.1215743 19.4546704,16.1210914 L19.4546704,16.1210914 Z" id="Shape" stroke="#A7A7A7" stroke-width="0.5" fill-rule="nonzero"></path>
            <path d="M10.0016451,21.2808166 L12.0016451,21.2808166 L12.0016451,22.3688166 L10.0016451,22.3688166 L10.0016451,21.2808166 Z M15.1022802,0.0448165651 C15.2623287,0.0448165651 15.4157372,0.1143744 15.5199045,0.2353128 L15.5199045,0.2353128 L15.5189576,0.2353128 L17.6373333,2.6727528 L19.7557091,0.2353128 C19.8608242,0.1143744 20.0132945,0.0448165651 20.1742788,0.0448165651 L20.1742788,0.0448165651 L24.8504,0.0448165651 C25.0701091,0.039384 25.2727491,0.1631232 25.3646061,0.360936 L25.3646061,0.360936 C25.4546099,0.5548944 25.4205178,0.7827072 25.2794196,0.9439584 L25.2794196,0.9439584 L22.8835893,3.7077984 L22.8835893,9.9497184 C22.8835893,9.96696305 22.8827809,9.98401989 22.8811994,10.0008538 L21.7866451,9.99981657 L21.7832257,9.9497184 L21.7832257,4.0509984 L18.2074681,4.0509984 L18.2074681,9.7509984 C18.2074681,9.84061378 18.1854986,9.92529283 18.1465823,9.99998809 L17.1679903,9.99998809 C17.129074,9.92529283 17.1071045,9.84061378 17.1071045,9.7509984 L17.1071045,9.7509984 L17.1071045,4.0509984 L5.63655903,4.0509984 L5.63564515,5.99981657 L4.53564515,5.99981657 L4.53605964,3.707904 L2.13455661,0.944064 C1.99535176,0.782808 1.96315539,0.5559336 2.05311661,0.362808 C2.14213479,0.1696872 2.3362657,0.04593744 2.55028024,0.0448165651 L2.55028024,0.0448165651 Z M14.8713697,1.134312 L3.74918788,1.134312 L5.33915152,2.958696 L16.4613333,2.961504 L14.8713697,1.134312 Z M23.6675636,1.134312 L20.448897,1.134312 L18.8598788,2.958696 L22.0749091,2.958696 L23.6675636,1.134312 Z" id="Combined-Shape"></path>
            <path d="M6.75965723,8.17647059 L1.24033863,8.17647059 C0.99243546,8.17647059 0.744532285,8.25480539 0.557984732,8.37307434 C0.392444452,8.47137621 0.268902178,8.60884155 0.16554028,8.76628183 C0.0831732516,8.88455078 0.0411835144,9.02202399 0.0209948686,9.15948933 C0,9.2186238 0,9.2969586 0,9.35609308 L0,21.8203775 C0,21.879512 0,21.9578468 0.0209948686,22.0169813 C0.0419897372,22.1544505 0.103361897,22.2919119 0.16554028,22.4101888 C0.268902178,22.5676251 0.393267213,22.7050944 0.557984732,22.8033963 C0.743713659,22.9216652 0.99243546,23 1.24033863,23 L6.75965723,23 C7.44201113,23 8,22.4693272 8,21.8203775 L8,9.35609308 C8,8.70791018 7.44201113,8.17647059 6.75965723,8.17647059 Z M7.16666667,21.3981606 C7.16666667,21.6000538 6.99106995,21.7647059 6.7757742,21.7647059 L1.55755522,21.7647059 C1.42089531,21.7647059 1.28424321,21.6916827 1.22545298,21.5814333 C1.18651619,21.5263085 1.16666667,21.4711838 1.16666667,21.3981606 L1.16666667,9.77830995 C1.16666667,9.7052868 1.18651619,9.65016207 1.22545298,9.59503733 C1.2842393,9.48478785 1.42089922,9.41176471 1.55755522,9.41176471 L2.33934016,9.41176471 C2.33934016,9.48478785 2.35918968,9.53991259 2.37827695,9.59503733 C2.41721375,9.66806047 2.47600007,9.72318521 2.53478639,9.77830995 C2.61265999,9.83343469 2.7103831,9.86994626 2.82795574,9.86994626 L5.50537369,9.86994626 C5.62294632,9.86994626 5.72067726,9.83343469 5.79854304,9.77830995 C5.91611567,9.68667364 5.99398927,9.55852942 5.99398927,9.41176471 L6.7757742,9.41176471 C6.99107777,9.41176471 7.16666667,9.57642416 7.16666667,9.77830995 L7.16666667,21.3981606 Z" id="Shape"></path>
        </g>
    </g>
</svg>