<?xml version="1.0" encoding="UTF-8"?>
<svg width="36px" height="36px" viewBox="0 0 36 36" version="1.1" xmlns="http://www.w3.org/2000/svg" xmlns:xlink="http://www.w3.org/1999/xlink">
    <!-- Generator: Sketch 59.1 (86144) - https://sketch.com -->
    <title>Icon / Menu / Apparel / Sport</title>
    <desc>Created with Sketch.</desc>
    <g id="Icon-/-Menu-/-Apparel-/-Sport" stroke="none" stroke-width="1" fill="none" fill-rule="evenodd">
        <rect id="Rectangle-Copy-3" fill="#FFFFFF" x="0" y="0" width="36" height="36" rx="4"></rect>
        <g id="np_sweater_1579240_000000" transform="translate(11.000000, 3.000000)" fill="#A7A7A7" stroke="#A7A7A7" stroke-width="0.625">
            <path d="M13.9969409,16.6705507 C14.112592,14.4992781 10.9209099,9.82269087 9.19064244,7.3173763 C8.6904798,6.58275126 8.30597592,6.0151472 8.22938274,5.81418756 C7.92147973,5.18004234 9.22970804,3.97695688 9.76739826,3.57637378 C9.84399913,3.54244849 9.84399913,3.44327811 9.80644848,3.37542751 C7.96052225,-0.766024484 4.15462595,0.0689467544 4.11540655,0.0689467544 L4.07635634,0.0689467544 C3.07603104,0.469529851 2.19290253,1.03713392 1.46142235,1.73915646 C0.500162647,2.70734363 0,3.97697024 0,5.28066914 C0,6.18231515 0.307903017,6.74991921 1.07691847,7.61896273 C1.23012019,9.02167165 1.57708111,12.3960965 1.23012019,14.2657293 C0.729957546,16.9041262 0.922217176,18.7088212 0.96126739,18.9763888 C0.845616313,19.3104307 0.076600863,21.9162251 0.500170337,24.7556484 C0.653372063,25.8908565 0.845624003,27.1278807 1.03786056,28.464182 C1.03786056,28.5307299 1.07691078,28.5646552 1.15351164,28.5972777 C1.19256185,28.5972777 1.2301125,28.631203 1.26916272,28.631203 L1.34576358,28.631203 C1.34576358,28.631203 1.38481379,28.631203 1.38481379,28.5972777 L1.42386401,28.5972777 C1.53951509,28.5633524 2.30853054,28.464182 2.65396882,28.3963314 L2.69301904,28.3963314 C3.11658851,28.8634557 3.92312385,29.5315396 5.50020496,30 L5.57680583,30 C5.65340669,30 5.73000755,29.9660747 5.76905777,29.8995269 C7.73064276,26.1585912 12.0368555,19.8782686 12.2664043,19.610701 C13.9966718,17.7408344 13.9966718,16.8378857 13.9966718,16.6708647 L13.9969409,16.6705507 Z M1.42404857,28.2629084 C1.23179663,27.0271202 1.0785949,25.8240348 0.923885923,24.7894401 C0.500316449,21.8170013 1.38498298,19.1447993 1.38498298,19.1107271 L1.38498298,19.0441792 C1.38498298,19.0102539 1.11613017,17.1404074 1.65383578,14.367592 C1.9617388,12.6973823 1.76948686,9.99097452 1.57723492,8.18781611 C1.69288599,8.32091179 1.80853707,8.45531022 1.92268858,8.58839921 C2.61510317,9.35696291 3.57636287,10.4256299 4.80646768,11.9628909 C5.4222891,12.7314546 5.92091373,13.3655998 6.3444832,13.9332039 C5.69113421,15.9713942 4.34537063,19.8794845 4.30630504,19.9459589 L4.30630504,20.0125067 C4.42195611,21.0811737 4.34535525,23.6204937 4.22970417,25.3231055 C3.96085137,25.9911894 3.72954153,26.5587934 3.53728959,26.9593765 C3.26843678,27.4604395 2.99959936,27.8610226 2.76828183,28.0945847 C2.72923161,28.0945847 2.65263075,28.12851 2.53697967,28.12851 C2.03981615,28.1624353 1.65531227,28.2289831 1.42403319,28.2629084 L1.42404857,28.2629084 Z M4.73139715,19.978234 C4.84704822,19.6102534 6.00056755,16.3037726 6.65391655,14.299521 C8.26852524,16.3703138 8.53737035,16.9718565 8.61550154,17.1388775 C6.92429967,18.8090872 5.69265685,21.7489903 4.73124334,24.119686 C4.80784421,22.5838614 4.80784421,20.8458077 4.73124334,19.978234 L4.73139715,19.978234 Z M11.8824003,19.4432324 C11.8824003,19.4432324 11.8448508,19.4432324 11.8824003,19.4432324 C11.8057994,19.5437056 7.46060569,25.7900293 5.42235062,29.6655839 C4.15318021,29.2310622 3.46076562,28.7299993 3.07626174,28.3294162 C3.34511455,28.0619221 3.65301756,27.6613323 3.92186268,27.0937282 C4.19071548,26.5587266 4.4986185,25.7575604 4.88312238,24.8219758 C5.84588164,22.417141 7.15257963,19.1432628 8.92195113,17.3725064 C8.96100135,17.3385811 8.998552,17.3385811 8.998552,17.3059586 C9.07515286,17.1728629 9.2674048,16.8714368 5.1535132,11.7601943 C3.88434279,10.2230669 2.92308309,9.15439988 2.2306685,8.35330049 C0.88490492,6.85011175 0.423807867,6.34904884 0.423807867,5.28038186 C0.423807867,4.04469391 0.88490492,2.87554711 1.76957145,1.9739011 C2.42292044,1.30581722 3.26852137,0.770815641 4.22978107,0.404171205 C4.30638194,0.404171205 4.57523474,0.337623369 4.95972324,0.337623369 C6.07416929,0.337623369 8.15141305,0.738206466 9.34229847,3.37793951 C8.88120141,3.74592011 7.38071347,5.01421056 7.80428294,5.91719274 C7.91993402,6.15076154 8.30444559,6.68575644 8.80460824,7.45432014 C10.4958101,9.9596347 13.687423,14.6021496 13.5716873,16.6404735 L13.5716873,16.6743988 C13.5747511,16.7044105 13.6888418,17.5055954 11.881985,19.4433059 L11.8824003,19.4432324 Z" id="Shape"></path>
        </g>
    </g>
</svg>