<?xml version="1.0" encoding="UTF-8"?>
<svg width="36px" height="36px" viewBox="0 0 36 36" version="1.1" xmlns="http://www.w3.org/2000/svg" xmlns:xlink="http://www.w3.org/1999/xlink">
    <!-- Generator: Sketch 59.1 (86144) - https://sketch.com -->
    <title>Icon / Menu / Packaging / Supplements</title>
    <desc>Created with Sketch.</desc>
    <g id="Icon-/-Menu-/-Packaging-/-Supplements" stroke="none" stroke-width="1" fill="none" fill-rule="evenodd">
        <rect id="Rectangle-Copy-4" fill="#FFFFFF" x="0" y="0" width="36" height="36" rx="4"></rect>
        <path d="M12,7.5 C8.41014913,7.5 5.5,10.4101491 5.5,14 L5.5,26 C5.5,27.9329966 7.06700338,29.5 9,29.5 L21,29.5 C22.9329966,29.5 24.5,27.9329966 24.5,26 L24.5,14 C24.5,10.4101491 21.5898509,7.5 18,7.5 L12,7.5 Z" id="Rectangle" stroke="#A7A7A7"></path>
        <rect id="Rectangle" stroke="#A7A7A7" fill="#FFFFFF" x="19.5" y="17.5" width="12" height="13" rx="2"></rect>
        <rect id="Rectangle" stroke="#A7A7A7" x="9.5" y="4.5" width="11" height="2"></rect>
        <rect id="Rectangle" stroke="#A7A7A7" fill="#FFFFFF" x="10.5" y="6.5" width="9" height="2"></rect>
        <rect id="Rectangle" fill="#A7A7A7" x="20" y="20" width="11" height="1"></rect>
        <rect id="Rectangle" fill="#A7A7A7" x="21" y="18" width="1" height="2"></rect>
        <rect id="Rectangle-Copy-3" fill="#A7A7A7" x="23" y="18" width="1" height="2"></rect>
        <rect id="Rectangle-Copy-5" fill="#A7A7A7" x="25" y="18" width="1" height="2"></rect>
        <rect id="Rectangle-Copy-6" fill="#A7A7A7" x="27" y="18" width="1" height="2"></rect>
        <rect id="Rectangle-Copy-7" fill="#A7A7A7" x="29" y="18" width="1" height="2"></rect>
        <rect id="Rectangle-Copy" fill="#A7A7A7" x="6" y="13" width="18" height="1"></rect>
        <g id="np_power-drink_1566478_000000" transform="translate(12.000000, 16.000000)" fill="#A7A7A7" fill-rule="nonzero">
            <path d="M3.55281244,0.00218922504 C3.43300072,0.0139047017 3.32181314,0.0731332411 3.25836501,0.158396691 L0.0508766848,4.49055043 C-0.101039986,4.69231216 0.108823971,5.00342744 0.395441118,5.00082815 L1.99918528,5.00082815 L1.99918528,7.66676891 C1.99840225,7.81191106 2.12526162,7.95054164 2.29283084,7.98894785 C2.4611919,8.02734906 2.6553973,7.96291327 2.74466571,7.83859879 L5.95215403,3.50644505 C6.09780607,3.30533315 5.8902916,3.00071609 5.6075896,3.00138258 L4.00384543,3.00138258 L4.00384543,0.335441817 C4.00541149,0.146043388 3.77910074,-0.0212277321 3.55279239,0.00219922231 L3.55281244,0.00218922504 Z" id="Path"></path>
        </g>
        <rect id="Rectangle-Copy-2" fill="#A7A7A7" x="6" y="26" width="13" height="1"></rect>
    </g>
</svg>