<?xml version="1.0" encoding="UTF-8"?>
<svg width="36px" height="36px" viewBox="0 0 36 36" version="1.1" xmlns="http://www.w3.org/2000/svg" xmlns:xlink="http://www.w3.org/1999/xlink">
    <!-- Generator: Sketch 59.1 (86144) - https://sketch.com -->
    <title>Icon / Menu / Apparel / Sweatshirts</title>
    <desc>Created with Sketch.</desc>
    <g id="Icon-/-Menu-/-Apparel-/-Sweatshirts" stroke="none" stroke-width="1" fill="none" fill-rule="evenodd">
        <rect id="Rectangle-Copy-3" fill="#FFFFFF" x="0" y="0" width="36" height="36" rx="4"></rect>
        <g id="np_sweater_1579240_000000" transform="translate(5.000000, 7.000000)" fill="#A7A7A7" stroke="#A7A7A7" stroke-width="0.3">
            <path d="M25.2687067,20.363928 C25.3973512,20.2921576 25.4731845,20.1486168 25.4433955,19.9982987 C25.4352706,19.9590283 24.9843395,14.9594987 23.1710995,9.51717867 C21.3768221,4.131712 20.4317395,2.257632 19.8642461,1.738672 C19.7681016,1.65064987 19.2210165,1.121172 15.8397928,0.0689866667 C15.6732299,0.0175274667 15.4904221,0.10013224 15.4186621,0.2612792 C15.3929332,0.322216267 14.7456435,1.74137253 12.9432541,1.74137253 C11.1408648,1.74137253 10.4949208,0.320836533 10.4678461,0.2626312 C10.3974312,0.1001312 10.215972,0.016172 10.0467155,0.0689866667 C6.66401147,1.12254133 6.11690213,1.65065333 6.02226213,1.738672 C5.4548728,2.25732 4.50965147,4.13136533 2.7154088,9.51717867 C0.9035208,14.9594987 0.451259467,19.9591253 0.4431128,19.9982987 C0.4106128,20.1580912 0.497279467,20.3097579 0.639468267,20.376096 L0.277894933,21.53528 C0.2508116,21.6246541 0.258936773,21.7194467 0.302270107,21.8020504 C0.34560344,21.8846541 0.420081307,21.9442392 0.509458907,21.9713208 L2.98351491,22.7079875 C3.01601491,22.7174667 3.04987037,22.7228834 3.08237037,22.7228834 C3.22997411,22.7228834 3.36674451,22.6280909 3.41278531,22.4804871 L3.77706264,21.3213031 L3.88404051,21.3538031 C3.91789459,21.3632824 3.95039597,21.368699 3.98289597,21.368699 C4.12508477,21.368699 4.25779224,21.2806769 4.30789597,21.141199 L6.47733597,10.4621324 L6.28233597,20.079359 C6.28098189,20.1727961 6.31619005,20.2621702 6.38119144,20.3298812 C6.44619144,20.3962366 6.53556557,20.4341516 6.62900264,20.4341516 L6.70348051,20.4341516 L6.70348051,22.0198742 C6.70348051,22.2121668 6.85785464,22.3665409 7.05014717,22.3665409 L18.8666272,22.3651868 C19.0589197,22.3651868 19.2132938,22.2108127 19.2132938,22.0185202 L19.2132938,20.4327975 L19.2620421,20.4327975 L19.2688129,20.4327975 C19.4611054,20.4327975 19.6154795,20.2784234 19.6154795,20.0861308 C19.6154795,20.0604019 19.6127714,20.0346716 19.6073547,20.0102975 L19.4137102,10.4606708 L21.5831502,21.1397375 C21.6467947,21.3117154 21.8309614,21.4051524 22.0083715,21.3523412 L22.1383715,21.3130708 L22.5040008,22.4790148 C22.5500416,22.627974 22.686812,22.7214111 22.8344192,22.7214111 C22.8669192,22.7214111 22.9007747,22.7159944 22.9332747,22.7065152 L25.4073307,21.9698485 C25.4967048,21.9441193 25.5711862,21.8818264 25.6145195,21.8005781 C25.6578528,21.7206818 25.6659787,21.6245373 25.6375402,21.5351632 L25.2687067,20.363928 Z M15.9061067,0.8150272 C16.1782955,0.9003592 16.4220507,0.977548 16.6495333,1.05067387 C16.5087,1.66815653 15.8573307,3.3730632 12.9582267,3.3730632 C10.0440773,3.3730632 9.40073333,1.65054587 9.26553333,1.0425272 C9.48626293,0.972112267 9.72053333,0.896278933 9.98323733,0.8150272 C10.3068819,1.3444912 11.1884587,2.4346192 12.9448107,2.4346192 C14.6995333,2.43464 15.5811067,1.34454667 15.9061067,0.8150272 Z M18.9068533,19.73816 L6.98221333,19.73816 L7.20971333,8.50685333 C7.5292984,6.33342667 8.55575067,4.42554667 10.0521027,3.29888 C10.7048067,3.74167733 11.6324173,4.068064 12.956788,4.068064 C14.2811587,4.068064 15.2101213,3.74170853 15.8628253,3.29888 C17.323956,4.399824 18.3382333,6.24419467 18.682196,8.35536 C18.6808419,8.36890184 18.6754253,8.37973517 18.6754253,8.3932784 L18.9068533,19.73816 Z M2.85306667,21.946808 L1.04388267,21.4078453 L1.3025272,20.58316 L3.1117112,21.1234747 L2.85306667,21.946808 Z M3.76712267,20.5940107 L1.18878933,19.8248267 C1.41087093,18.7983813 1.86316,14.2712267 3.37441867,9.73509333 C5.12941867,4.46472 6.04201867,2.65962667 6.47673867,2.26130667 C6.51736453,2.23422299 7.12267573,1.7453696 8.608184,1.255176 C8.7111024,1.643824 8.9521432,2.27486133 9.507368,2.84225067 C7.97173867,4.060992 6.90872,6.02725067 6.54579467,8.25475733 C6.54444059,8.25881992 6.54037835,8.26152808 6.53902392,8.26559067 L3.76712267,20.5940107 Z M18.5195227,21.671936 L7.39498933,21.671936 L7.39498933,20.43288 L18.5195227,20.4315259 L18.5195227,21.671936 Z M19.3848373,8.36582933 C19.0408781,6.09218133 17.968392,4.081376 16.408392,2.84342933 C16.9595227,2.280096 17.2019467,1.65311467 17.3048373,1.26446667 C18.7673547,1.74654133 19.3685787,2.23135467 19.39704,2.25031733 C19.84528,2.660632 20.757984,4.46447733 22.51288,9.73623733 C24.0227867,14.2685573 24.4750827,18.7998373 24.6985093,19.8259707 L22.120176,20.5951547 L19.3848373,8.36582933 Z M23.0612373,21.9468427 L22.7998819,21.1167493 L24.6090659,20.5764347 L24.8704213,21.40788 L23.0612373,21.9468427 Z" id="Shape"></path>
        </g>
    </g>
</svg>