<?xml version="1.0" encoding="UTF-8"?>
<svg width="36px" height="36px" viewBox="0 0 36 36" version="1.1" xmlns="http://www.w3.org/2000/svg" xmlns:xlink="http://www.w3.org/1999/xlink">
    <!-- Generator: Sketch 59.1 (86144) - https://sketch.com -->
    <title>Icon / Menu / Apparel / Tanks</title>
    <desc>Created with Sketch.</desc>
    <g id="Icon-/-Menu-/-Apparel-/-Tanks" stroke="none" stroke-width="1" fill="none" fill-rule="evenodd">
        <rect id="Rectangle-Copy-4" fill="#FFFFFF" x="0" y="0" width="36" height="36" rx="4"></rect>
        <path d="M25,29.6163652 C25,29.7187886 24.963089,29.8158209 24.8974632,29.8876958 C24.8318374,29.9595707 24.7424253,30 24.649731,30 L24.649731,30 L11.350269,30 C11.2567536,30 11.1681605,29.959573 11.1025368,29.8876958 C11.0369131,29.8158186 11,29.7187863 11,29.6163652 L11,29.6163652 L11,15.4336679 C11,15.2881195 11.0746473,15.1551499 11.193591,15.0904625 C12.4297741,14.4138035 13.0999551,12.9845858 13.0999551,7.38363479 C13.0999551,7.28121135 13.136866,7.18417911 13.2024919,7.11230422 C13.2681177,7.04042934 13.3567108,7 13.4502241,7 L13.4502241,7 L14.8496579,7 C15.0153657,7.001817 15.1564578,7.13118259 15.19337,7.30817375 C15.4123958,8.84086829 16.585349,9.99265815 17.9995456,10.0663293 C19.4145191,9.99272945 20.5867164,8.84091429 20.8131235,7.3099705 C20.8434889,7.13117109 20.9845726,7.00179687 21.149453,7 L21.149453,7 L22.5497058,7 C22.6424022,7 22.7318143,7.04042704 22.797438,7.11230422 C22.8630617,7.18418141 22.8999748,7.28121365 22.8999748,7.38363479 C22.8999748,12.9845398 23.5693368,14.4130445 24.806409,15.0904625 C24.9245317,15.1551614 25,15.2881218 25,15.4336679 L25,15.4336679 Z M24.036,28 L11.959,28 L11.9595001,28.9961475 L24.0364953,28.9961475 L24.036,28 Z M14.5025947,7.76635417 L13.7986464,7.76635417 C13.767483,13.2279254 13.3211977,14.8217769 11.9595001,15.6636215 L11.9595001,15.6636215 L11.959,27 L24.036,27 L24.0364953,15.6636215 C22.7050577,14.8405295 22.2522409,13.2983939 22.2028681,8.12476323 L22.2001214,7.76635417 L21.496299,7.76635417 C21.4333003,11.9485755 20.3175919,13.8999844 17.9994469,13.8999844 C15.6821838,13.8999844 14.5657573,11.9486675 14.5025947,7.76635417 L14.5025947,7.76635417 Z M20.7097383,9.32784468 C20.0658488,10.2595272 19.0667302,10.8147622 17.9995113,10.8336293 C16.933194,10.8147463 15.9340754,10.2595272 15.2893234,9.32784468 C15.6297268,12.6529954 16.8847465,13.1336486 17.9995309,13.1336486 C19.1142522,13.1336486 20.3693139,12.6529494 20.7097383,9.32784468 Z" id="Combined-Shape" stroke="#A7A7A7" stroke-width="0.3" fill="#A7A7A7"></path>
    </g>
</svg>