<?xml version="1.0" encoding="UTF-8"?>
<svg width="36px" height="36px" viewBox="0 0 36 36" version="1.1" xmlns="http://www.w3.org/2000/svg" xmlns:xlink="http://www.w3.org/1999/xlink">
    <!-- Generator: Sketch 59.1 (86144) - https://sketch.com -->
    <title>Icon / Menu / Apparel / Kids</title>
    <desc>Created with Sketch.</desc>
    <g id="Icon-/-Menu-/-Apparel-/-Kids" stroke="none" stroke-width="1" fill="none" fill-rule="evenodd">
        <rect id="Rectangle-Copy-3" fill="#FFFFFF" x="0" y="0" width="36" height="36" rx="4"></rect>
        <path d="M14.4926303,7.0114439 L10.8173868,7.78204645 C10.7091622,7.80585777 10.6108748,7.85997395 10.5346757,7.93790145 L5.16316597,13.2023371 C4.94561134,13.417719 4.94561134,13.7662413 5.16316597,13.9816121 L8.55569845,17.3065188 C8.72797691,17.4753631 8.99192159,17.5175728 9.20946773,17.4104222 L11.1354367,16.4666474 L10.649513,24.138107 C10.6362609,24.2896341 10.6870598,24.440064 10.7908685,24.5537204 L15.5969562,29.818156 C15.7051808,29.9350487 15.8597898,30.0010702 16.0210227,30.0000128 L19.9789773,30.0000128 C20.1402102,30.0010691 20.2948221,29.9350459 20.4030438,29.818156 L25.2091315,24.5537204 C25.3129402,24.4400751 25.3637405,24.2896341 25.350487,24.138107 L24.8645633,16.4666474 L26.7905323,17.4104222 C27.0080869,17.5175728 27.2720174,17.4753631 27.4443015,17.3065188 L30.836834,13.9816121 C31.0543887,13.7662302 31.0543887,13.4177079 30.836834,13.2023371 L25.4653243,7.93790145 C25.3891252,7.85997395 25.2908378,7.80585833 25.1826132,7.78204645 L21.5073697,7.0114439 C21.341718,6.97789282 21.1694452,7.01902026 21.0380128,7.12292248 C20.9065805,7.22682471 20.8292929,7.38268082 20.827085,7.54828888 C20.7994765,9.06029022 19.550475,10.2670928 17.9999746,10.2670928 C16.4494741,10.2670928 15.200485,9.06029022 15.1728642,7.54828888 C15.1706556,7.39784517 15.1066023,7.2549767 14.9950644,7.15215396 C14.8835264,7.04933399 14.7344387,6.99521559 14.5809492,7.0027936 C14.5632798,7.00171135 14.5456103,7.00171135 14.5279409,7.0027936 C14.5158214,7.00494981 14.5047781,7.00819685 14.4926303,7.0114439 Z M14.1215721,8.22363563 C14.4716531,10.0137931 16.0751619,11.3753701 18.0000848,11.3753701 C19.9250077,11.3753701 21.5283186,10.0137931 21.8785976,8.22363563 L24.7939138,8.83841088 L29.6441044,13.5919192 L26.9406801,16.2414542 L24.4757791,15.0378934 C24.2935633,14.945896 24.0748948,14.9588826 23.9037416,15.0703639 C23.7336739,15.1818425 23.6375946,15.3745097 23.6541614,15.5747245 L24.1489058,23.3672662 C22.7408634,23.4419464 21.4520969,23.958213 20.5002371,24.8911818 C19.522905,25.849032 18.9188081,27.231168 18.8569791,28.8915987 L17.1430435,28.8915987 C17.0812004,27.2313066 16.4771176,25.8493091 15.4997855,24.8911818 C14.5478409,23.958213 13.2590744,23.4419381 11.8511169,23.3672662 L12.3458612,15.5747245 C12.3624264,15.3744931 12.2663487,15.1818314 12.0962811,15.0703639 C11.925108,14.9588853 11.7064508,14.945896 11.5242435,15.0378934 L9.05934252,16.2414542 L6.35591819,13.5919192 L11.2061088,8.83841088 L14.1215721,8.22363563 Z M12.2927709,24.5276614 C13.2414078,24.6694465 14.0707689,25.0580118 14.7046353,25.6792429 C15.4036949,26.3643676 15.8796389,27.3330515 15.9945044,28.5799469 L12.2927709,24.5276614 Z M20.0054108,28.5798915 C20.1202621,27.3330515 20.5962203,26.3643676 21.2952799,25.6791875 C21.9291746,25.0579286 22.7585357,24.6693856 23.7071443,24.527606 L20.0054108,28.5798915 Z" id="Shape" fill="#A7A7A7"></path>
    </g>
</svg>