<?xml version="1.0" encoding="UTF-8"?>
<svg width="36px" height="36px" viewBox="0 0 36 36" version="1.1" xmlns="http://www.w3.org/2000/svg" xmlns:xlink="http://www.w3.org/1999/xlink">
    <!-- Generator: Sketch 59.1 (86144) - https://sketch.com -->
    <title>Icon / Menu / Social / Tw</title>
    <desc>Created with Sketch.</desc>
    <g id="Icon-/-Menu-/-Social-/-Tw" stroke="none" stroke-width="1" fill="none" fill-rule="evenodd">
        <rect id="Rectangle-Copy-3" fill="#FFFFFF" x="0" y="0" width="36" height="36" rx="4"></rect>
        <path d="M27,12.7783505 C26.325,13.0876289 25.65,13.3195876 24.9,13.3969072 C25.65,12.9329897 26.25,12.1597938 26.55,11.3092784 C25.8,11.7731959 25.05,12.0824742 24.225,12.2371134 C23.55,11.4639175 22.575,11 21.525,11 C19.5,11 17.85,12.7010309 17.85,14.7886598 C17.85,15.0979381 17.85,15.4072165 17.925,15.6391753 C14.775,15.4845361 12.075,13.9381443 10.275,11.6185567 C9.9,12.2371134 9.75,12.8556701 9.75,13.5515464 C9.75,14.8659794 10.425,16.0257732 11.4,16.7216495 C10.8,16.7216495 10.2,16.5670103 9.75,16.257732 C9.75,16.257732 9.75,16.257732 9.75,16.3350515 C9.75,18.1907216 11.025,19.7371134 12.675,20.0463918 C12.375,20.1237113 12.075,20.2010309 11.7,20.2010309 C11.475,20.2010309 11.25,20.2010309 11.025,20.1237113 C11.475,21.6701031 12.825,22.7525773 14.475,22.7525773 C13.2,23.757732 11.625,24.3762887 9.9,24.3762887 C9.6,24.3762887 9.3,24.3762887 9,24.2989691 C10.65,25.3814433 12.6,26 14.625,26 C21.45,26 25.125,20.2010309 25.125,15.1752577 C25.125,15.0206186 25.125,14.8659794 25.125,14.7113402 C25.875,14.1701031 26.475,13.4742268 27,12.7783505 Z" id="Path" fill="#A7A7A7"></path>
    </g>
</svg>