<?xml version="1.0" encoding="UTF-8"?>
<svg width="36px" height="36px" viewBox="0 0 36 36" version="1.1" xmlns="http://www.w3.org/2000/svg" xmlns:xlink="http://www.w3.org/1999/xlink">
    <!-- Generator: Sketch 59.1 (86144) - https://sketch.com -->
    <title>Icon / Menu / Tech / Watch</title>
    <desc>Created with Sketch.</desc>
    <g id="Icon-/-Menu-/-Tech-/-Watch" stroke="none" stroke-width="1" fill="none" fill-rule="evenodd">
        <rect id="Rectangle-Copy-2" fill="#FFFFFF" x="0" y="0" width="36" height="36" rx="4"></rect>
        <path d="M29.6282746,13.8913574 L29.3969567,13.8656043 C28.3373973,13.7485468 26.3863982,13.5308118 25.756671,12.437492 C25.2500294,11.5782752 24.339438,11 23.2990592,11 L12.6991317,11 C11.6598795,11 10.7492881,11.5759378 10.2426465,12.4351545 C9.61525909,13.5296431 7.66203577,13.747384 6.60236077,13.8644355 L6.36991342,13.8913592 C5.07339742,14.040023 4.95943989,16.8342186 5.00909591,18.5 C4.95944567,20.1657514 5.07341475,22.960004 6.37103999,23.1086408 L6.60348735,23.1343939 C7.66192022,23.2514514 9.61057946,23.4691864 10.2403067,24.5601688 C10.7469483,25.4205543 11.6575397,25.9988295 12.6990451,25.9988295 L23.300128,26 C24.3416334,26 25.2533513,25.4217248 25.7599929,24.5590019 C26.3907601,23.4691882 28.3383505,23.2514473 29.3968123,23.1343957 L29.6292597,23.1086426 C30.9269022,22.9588071 31.0397332,20.1657832 30.9912037,18.5 C31.038595,16.8342504 30.9246289,14.0399978 29.6281042,13.891361 L29.6282746,13.8913574 Z M6.51670631,22.0268266 C6.22897006,21.7646144 6.01344446,20.1129176 6.06084732,18.5161804 C6.06084732,18.5103273 6.05971901,18.5044744 6.05971901,18.497451 C6.05971901,18.4915978 6.06084732,18.4869155 6.06084732,18.4810626 C6.01232655,16.8843854 6.22897583,15.2326286 6.51670631,14.9704164 L6.71304545,14.9481755 C7.57851602,14.8521878 8.81295478,14.7152292 9.81835191,14.2036727 L9.81835191,22.7934432 C8.81408136,22.2819048 7.5796426,22.1449251 6.71535637,22.0489405 L6.51670631,22.0268266 Z M23.3003822,24.9076562 L12.6992993,24.9076562 C12.0719118,24.9076562 11.5167408,24.5775365 11.1872605,24.0753778 C11.1838753,24.0683541 11.1793618,24.0613307 11.1748483,24.054307 C10.9830241,23.754636 10.8701816,23.3964392 10.8701816,23.0101333 L10.8701816,13.9885368 C10.8701816,13.6022309 10.9830212,13.2428654 11.1759749,12.9431943 C11.1793601,12.9373415 11.1838736,12.9314886 11.1872588,12.9244649 C11.5167391,12.4222762 12.0707835,12.0921885 12.6992975,12.0921885 L23.3003805,12.0921885 C23.9288945,12.0921885 24.482939,12.4223061 24.8124192,12.9244649 C24.8158041,12.9314886 24.8203177,12.9373415 24.8237029,12.9443652 C25.015527,13.2440362 25.1283695,13.6034017 25.1283695,13.9897076 L25.1283695,23.0113041 C25.1283695,23.3964413 25.0155299,23.7558068 24.8237029,24.0554778 C24.8191893,24.0625015 24.8146758,24.0695252 24.8112906,24.0765486 C24.4818104,24.5775686 23.9277659,24.9076562 23.3003785,24.9076562 L23.3003822,24.9076562 Z M29.4815308,22.0268266 L29.2840651,22.0490679 C28.4185945,22.1450555 27.1841558,22.2820142 26.1810696,22.7935706 L26.179941,18.499884 L26.179941,14.2061975 C27.1842115,14.7177359 28.4197769,14.8558843 29.2852474,14.9507002 L29.4815866,14.9729415 C29.7693228,15.2351536 29.9848484,16.8868505 29.9374456,18.4835876 C29.9374456,18.4894408 29.9385739,18.4952937 29.9385739,18.5011465 C29.9385739,18.5069997 29.9374456,18.5116818 29.9374456,18.5187055 C29.9848369,20.114214 29.7693171,21.7647421 29.4815866,22.0269543 L29.4815308,22.0268266 Z" id="Shape" stroke="#979797" stroke-width="0.1" fill="#A7A7A7" transform="translate(18.000000, 18.500000) rotate(90.000000) translate(-18.000000, -18.500000) "></path>
    </g>
</svg>